G75*
G70*
%OFA0B0*%
%FSLAX24Y24*%
%IPPOS*%
%LPD*%
%AMOC8*
5,1,8,0,0,1.08239X$1,22.5*
%
%ADD10C,0.0100*%
%ADD11C,0.0110*%
%ADD12C,0.0080*%
%ADD13C,0.0160*%
%ADD14C,0.0060*%
%ADD15C,0.0020*%
%ADD16C,0.0030*%
%ADD17R,0.0230X0.0160*%
%ADD18C,0.0050*%
D10*
X003050Y011150D02*
X003050Y011400D01*
X003550Y011400D01*
X003550Y011900D01*
X002550Y011900D01*
X002550Y011400D01*
X003050Y011400D01*
X002550Y011900D02*
X002550Y013900D01*
X003050Y013900D01*
X003050Y014150D01*
X003050Y013900D02*
X003550Y013900D01*
X003550Y011900D01*
X012967Y011400D02*
X012924Y011346D01*
X012878Y011294D01*
X012829Y011245D01*
X012777Y011198D01*
X012723Y011155D01*
X012667Y011114D01*
X012608Y011077D01*
X012548Y011043D01*
X012485Y011013D01*
X012422Y010986D01*
X012356Y010962D01*
X012290Y010942D01*
X012222Y010926D01*
X012154Y010914D01*
X012085Y010906D01*
X012016Y010901D01*
X011946Y010900D01*
X011877Y010903D01*
X011808Y010910D01*
X011740Y010921D01*
X011672Y010935D01*
X011605Y010954D01*
X011539Y010976D01*
X011474Y011001D01*
X011411Y011030D01*
X011350Y011063D01*
X011291Y011099D01*
X011234Y011138D01*
X011178Y011180D01*
X011126Y011225D01*
X011076Y011273D01*
X011029Y011324D01*
X010984Y011378D01*
X010943Y011433D01*
X010905Y011491D01*
X010870Y011551D01*
X010838Y011613D01*
X010810Y011676D01*
X010786Y011741D01*
X010765Y011807D01*
X010748Y011875D01*
X010734Y011943D01*
X010725Y012012D01*
X010719Y012081D01*
X010717Y012150D01*
X010719Y012219D01*
X010725Y012288D01*
X010734Y012357D01*
X010748Y012425D01*
X010765Y012493D01*
X010786Y012559D01*
X010810Y012624D01*
X010838Y012687D01*
X010870Y012749D01*
X010905Y012809D01*
X010943Y012867D01*
X010984Y012922D01*
X011029Y012976D01*
X011076Y013027D01*
X011126Y013075D01*
X011178Y013120D01*
X011234Y013162D01*
X011291Y013201D01*
X011350Y013237D01*
X011411Y013270D01*
X011474Y013299D01*
X011539Y013324D01*
X011605Y013346D01*
X011672Y013365D01*
X011740Y013379D01*
X011808Y013390D01*
X011877Y013397D01*
X011946Y013400D01*
X012016Y013399D01*
X012085Y013394D01*
X012154Y013386D01*
X012222Y013374D01*
X012290Y013358D01*
X012356Y013338D01*
X012422Y013314D01*
X012485Y013287D01*
X012548Y013257D01*
X012608Y013223D01*
X012667Y013186D01*
X012723Y013145D01*
X012777Y013102D01*
X012829Y013055D01*
X012878Y013006D01*
X012924Y012954D01*
X012967Y012900D01*
X019267Y012900D02*
X019224Y012954D01*
X019178Y013006D01*
X019129Y013055D01*
X019077Y013102D01*
X019023Y013145D01*
X018967Y013186D01*
X018908Y013223D01*
X018848Y013257D01*
X018785Y013287D01*
X018722Y013314D01*
X018656Y013338D01*
X018590Y013358D01*
X018522Y013374D01*
X018454Y013386D01*
X018385Y013394D01*
X018316Y013399D01*
X018246Y013400D01*
X018177Y013397D01*
X018108Y013390D01*
X018040Y013379D01*
X017972Y013365D01*
X017905Y013346D01*
X017839Y013324D01*
X017774Y013299D01*
X017711Y013270D01*
X017650Y013237D01*
X017591Y013201D01*
X017534Y013162D01*
X017478Y013120D01*
X017426Y013075D01*
X017376Y013027D01*
X017329Y012976D01*
X017284Y012922D01*
X017243Y012867D01*
X017205Y012809D01*
X017170Y012749D01*
X017138Y012687D01*
X017110Y012624D01*
X017086Y012559D01*
X017065Y012493D01*
X017048Y012425D01*
X017034Y012357D01*
X017025Y012288D01*
X017019Y012219D01*
X017017Y012150D01*
X017019Y012081D01*
X017025Y012012D01*
X017034Y011943D01*
X017048Y011875D01*
X017065Y011807D01*
X017086Y011741D01*
X017110Y011676D01*
X017138Y011613D01*
X017170Y011551D01*
X017205Y011491D01*
X017243Y011433D01*
X017284Y011378D01*
X017329Y011324D01*
X017376Y011273D01*
X017426Y011225D01*
X017478Y011180D01*
X017534Y011138D01*
X017591Y011099D01*
X017650Y011063D01*
X017711Y011030D01*
X017774Y011001D01*
X017839Y010976D01*
X017905Y010954D01*
X017972Y010935D01*
X018040Y010921D01*
X018108Y010910D01*
X018177Y010903D01*
X018246Y010900D01*
X018316Y010901D01*
X018385Y010906D01*
X018454Y010914D01*
X018522Y010926D01*
X018590Y010942D01*
X018656Y010962D01*
X018722Y010986D01*
X018785Y011013D01*
X018848Y011043D01*
X018908Y011077D01*
X018967Y011114D01*
X019023Y011155D01*
X019077Y011198D01*
X019129Y011245D01*
X019178Y011294D01*
X019224Y011346D01*
X019267Y011400D01*
X027141Y011400D02*
X027098Y011346D01*
X027052Y011294D01*
X027003Y011245D01*
X026951Y011198D01*
X026897Y011155D01*
X026841Y011114D01*
X026782Y011077D01*
X026722Y011043D01*
X026659Y011013D01*
X026596Y010986D01*
X026530Y010962D01*
X026464Y010942D01*
X026396Y010926D01*
X026328Y010914D01*
X026259Y010906D01*
X026190Y010901D01*
X026120Y010900D01*
X026051Y010903D01*
X025982Y010910D01*
X025914Y010921D01*
X025846Y010935D01*
X025779Y010954D01*
X025713Y010976D01*
X025648Y011001D01*
X025585Y011030D01*
X025524Y011063D01*
X025465Y011099D01*
X025408Y011138D01*
X025352Y011180D01*
X025300Y011225D01*
X025250Y011273D01*
X025203Y011324D01*
X025158Y011378D01*
X025117Y011433D01*
X025079Y011491D01*
X025044Y011551D01*
X025012Y011613D01*
X024984Y011676D01*
X024960Y011741D01*
X024939Y011807D01*
X024922Y011875D01*
X024908Y011943D01*
X024899Y012012D01*
X024893Y012081D01*
X024891Y012150D01*
X024893Y012219D01*
X024899Y012288D01*
X024908Y012357D01*
X024922Y012425D01*
X024939Y012493D01*
X024960Y012559D01*
X024984Y012624D01*
X025012Y012687D01*
X025044Y012749D01*
X025079Y012809D01*
X025117Y012867D01*
X025158Y012922D01*
X025203Y012976D01*
X025250Y013027D01*
X025300Y013075D01*
X025352Y013120D01*
X025408Y013162D01*
X025465Y013201D01*
X025524Y013237D01*
X025585Y013270D01*
X025648Y013299D01*
X025713Y013324D01*
X025779Y013346D01*
X025846Y013365D01*
X025914Y013379D01*
X025982Y013390D01*
X026051Y013397D01*
X026120Y013400D01*
X026190Y013399D01*
X026259Y013394D01*
X026328Y013386D01*
X026396Y013374D01*
X026464Y013358D01*
X026530Y013338D01*
X026596Y013314D01*
X026659Y013287D01*
X026722Y013257D01*
X026782Y013223D01*
X026841Y013186D01*
X026897Y013145D01*
X026951Y013102D01*
X027003Y013055D01*
X027052Y013006D01*
X027098Y012954D01*
X027141Y012900D01*
X033440Y012900D02*
X033397Y012954D01*
X033351Y013006D01*
X033302Y013055D01*
X033250Y013102D01*
X033196Y013145D01*
X033140Y013186D01*
X033081Y013223D01*
X033021Y013257D01*
X032958Y013287D01*
X032895Y013314D01*
X032829Y013338D01*
X032763Y013358D01*
X032695Y013374D01*
X032627Y013386D01*
X032558Y013394D01*
X032489Y013399D01*
X032419Y013400D01*
X032350Y013397D01*
X032281Y013390D01*
X032213Y013379D01*
X032145Y013365D01*
X032078Y013346D01*
X032012Y013324D01*
X031947Y013299D01*
X031884Y013270D01*
X031823Y013237D01*
X031764Y013201D01*
X031707Y013162D01*
X031651Y013120D01*
X031599Y013075D01*
X031549Y013027D01*
X031502Y012976D01*
X031457Y012922D01*
X031416Y012867D01*
X031378Y012809D01*
X031343Y012749D01*
X031311Y012687D01*
X031283Y012624D01*
X031259Y012559D01*
X031238Y012493D01*
X031221Y012425D01*
X031207Y012357D01*
X031198Y012288D01*
X031192Y012219D01*
X031190Y012150D01*
X031192Y012081D01*
X031198Y012012D01*
X031207Y011943D01*
X031221Y011875D01*
X031238Y011807D01*
X031259Y011741D01*
X031283Y011676D01*
X031311Y011613D01*
X031343Y011551D01*
X031378Y011491D01*
X031416Y011433D01*
X031457Y011378D01*
X031502Y011324D01*
X031549Y011273D01*
X031599Y011225D01*
X031651Y011180D01*
X031707Y011138D01*
X031764Y011099D01*
X031823Y011063D01*
X031884Y011030D01*
X031947Y011001D01*
X032012Y010976D01*
X032078Y010954D01*
X032145Y010935D01*
X032213Y010921D01*
X032281Y010910D01*
X032350Y010903D01*
X032419Y010900D01*
X032489Y010901D01*
X032558Y010906D01*
X032627Y010914D01*
X032695Y010926D01*
X032763Y010942D01*
X032829Y010962D01*
X032895Y010986D01*
X032958Y011013D01*
X033021Y011043D01*
X033081Y011077D01*
X033140Y011114D01*
X033196Y011155D01*
X033250Y011198D01*
X033302Y011245D01*
X033351Y011294D01*
X033397Y011346D01*
X033440Y011400D01*
X039800Y015400D02*
X040300Y015400D01*
X040300Y015150D01*
X040300Y015400D02*
X040800Y015400D01*
X040800Y017400D01*
X039800Y017400D01*
X039800Y015400D01*
X039800Y017400D02*
X039800Y017900D01*
X040300Y017900D01*
X040300Y018150D01*
X040300Y017900D02*
X040800Y017900D01*
X040800Y017400D01*
X036245Y021150D02*
X036248Y021263D01*
X036256Y021376D01*
X036270Y021488D01*
X036289Y021600D01*
X036314Y021710D01*
X036344Y021819D01*
X036380Y021927D01*
X036420Y022032D01*
X036466Y022136D01*
X036517Y022237D01*
X036573Y022335D01*
X036633Y022431D01*
X036699Y022523D01*
X036768Y022612D01*
X036842Y022698D01*
X036920Y022780D01*
X037002Y022858D01*
X037088Y022932D01*
X037177Y023001D01*
X037269Y023067D01*
X037365Y023127D01*
X037463Y023183D01*
X037564Y023234D01*
X037668Y023280D01*
X037773Y023320D01*
X037881Y023356D01*
X037990Y023386D01*
X038100Y023411D01*
X038212Y023430D01*
X038324Y023444D01*
X038437Y023452D01*
X038550Y023455D01*
X038663Y023452D01*
X038776Y023444D01*
X038888Y023430D01*
X039000Y023411D01*
X039110Y023386D01*
X039219Y023356D01*
X039327Y023320D01*
X039432Y023280D01*
X039536Y023234D01*
X039637Y023183D01*
X039735Y023127D01*
X039831Y023067D01*
X039923Y023001D01*
X040012Y022932D01*
X040098Y022858D01*
X040180Y022780D01*
X040258Y022698D01*
X040332Y022612D01*
X040401Y022523D01*
X040467Y022431D01*
X040527Y022335D01*
X040583Y022237D01*
X040634Y022136D01*
X040680Y022032D01*
X040720Y021927D01*
X040756Y021819D01*
X040786Y021710D01*
X040811Y021600D01*
X040830Y021488D01*
X040844Y021376D01*
X040852Y021263D01*
X040855Y021150D01*
X040852Y021037D01*
X040844Y020924D01*
X040830Y020812D01*
X040811Y020700D01*
X040786Y020590D01*
X040756Y020481D01*
X040720Y020373D01*
X040680Y020268D01*
X040634Y020164D01*
X040583Y020063D01*
X040527Y019965D01*
X040467Y019869D01*
X040401Y019777D01*
X040332Y019688D01*
X040258Y019602D01*
X040180Y019520D01*
X040098Y019442D01*
X040012Y019368D01*
X039923Y019299D01*
X039831Y019233D01*
X039735Y019173D01*
X039637Y019117D01*
X039536Y019066D01*
X039432Y019020D01*
X039327Y018980D01*
X039219Y018944D01*
X039110Y018914D01*
X039000Y018889D01*
X038888Y018870D01*
X038776Y018856D01*
X038663Y018848D01*
X038550Y018845D01*
X038437Y018848D01*
X038324Y018856D01*
X038212Y018870D01*
X038100Y018889D01*
X037990Y018914D01*
X037881Y018944D01*
X037773Y018980D01*
X037668Y019020D01*
X037564Y019066D01*
X037463Y019117D01*
X037365Y019173D01*
X037269Y019233D01*
X037177Y019299D01*
X037088Y019368D01*
X037002Y019442D01*
X036920Y019520D01*
X036842Y019602D01*
X036768Y019688D01*
X036699Y019777D01*
X036633Y019869D01*
X036573Y019965D01*
X036517Y020063D01*
X036466Y020164D01*
X036420Y020268D01*
X036380Y020373D01*
X036344Y020481D01*
X036314Y020590D01*
X036289Y020700D01*
X036270Y020812D01*
X036256Y020924D01*
X036248Y021037D01*
X036245Y021150D01*
D11*
X005275Y005580D02*
X005078Y005580D01*
X004980Y005678D01*
X004980Y006072D01*
X005078Y006171D01*
X005275Y006171D01*
X005374Y006072D01*
X005625Y006171D02*
X005920Y006171D01*
X006018Y006072D01*
X006018Y005875D01*
X005920Y005777D01*
X005625Y005777D01*
X005821Y005777D02*
X006018Y005580D01*
X006269Y005580D02*
X006663Y005974D01*
X006663Y006072D01*
X006564Y006171D01*
X006368Y006171D01*
X006269Y006072D01*
X006914Y006072D02*
X007012Y006171D01*
X007209Y006171D01*
X007307Y006072D01*
X006914Y005678D01*
X007012Y005580D01*
X007209Y005580D01*
X007307Y005678D01*
X007307Y006072D01*
X007558Y006072D02*
X007657Y006171D01*
X007853Y006171D01*
X007952Y006072D01*
X007952Y005974D01*
X007853Y005875D01*
X007952Y005777D01*
X007952Y005678D01*
X007853Y005580D01*
X007657Y005580D01*
X007558Y005678D01*
X007755Y005875D02*
X007853Y005875D01*
X008203Y006072D02*
X008301Y006171D01*
X008498Y006171D01*
X008596Y006072D01*
X008596Y005974D01*
X008203Y005580D01*
X008596Y005580D01*
X006914Y005678D02*
X006914Y006072D01*
X006663Y005580D02*
X006269Y005580D01*
X005625Y005580D02*
X005625Y006171D01*
X005374Y005678D02*
X005275Y005580D01*
X039730Y022000D02*
X040124Y022000D01*
X039927Y022197D02*
X039927Y021803D01*
X042851Y018360D02*
X043048Y018065D01*
X043245Y018360D01*
X043245Y018065D02*
X042654Y018065D01*
X042851Y017814D02*
X042851Y017518D01*
X042950Y017420D01*
X043147Y017420D01*
X043245Y017518D01*
X043245Y017814D01*
X043147Y017169D02*
X042950Y017169D01*
X042851Y017071D01*
X042851Y016874D01*
X042950Y016775D01*
X043147Y016775D01*
X043245Y016874D01*
X043245Y017071D01*
X043147Y017169D01*
X043245Y016543D02*
X043245Y016346D01*
X043245Y016444D02*
X042654Y016444D01*
X042654Y016346D01*
X042753Y016095D02*
X042654Y015996D01*
X042654Y015800D01*
X042753Y015701D01*
X043147Y015701D01*
X043245Y015800D01*
X043245Y015996D01*
X043147Y016095D01*
X042192Y015582D02*
X042093Y015681D01*
X041601Y015681D01*
X041601Y015386D01*
X041700Y015287D01*
X041897Y015287D01*
X041995Y015386D01*
X041995Y015681D01*
X042192Y015582D02*
X042192Y015484D01*
X041995Y015932D02*
X041995Y016129D01*
X041995Y016030D02*
X041601Y016030D01*
X041601Y015932D01*
X041404Y016030D02*
X041306Y016030D01*
X041897Y016361D02*
X041897Y016460D01*
X041995Y016460D01*
X041995Y016361D01*
X041897Y016361D01*
X041995Y016684D02*
X041995Y016979D01*
X041897Y017077D01*
X041798Y016979D01*
X041798Y016782D01*
X041700Y016684D01*
X041601Y016782D01*
X041601Y017077D01*
X041601Y017328D02*
X041601Y017525D01*
X041503Y017427D02*
X041897Y017427D01*
X041995Y017525D01*
X041897Y015036D02*
X041700Y015036D01*
X041601Y014938D01*
X041601Y014741D01*
X041700Y014643D01*
X041897Y014643D01*
X041995Y014741D01*
X041995Y014938D01*
X041897Y015036D01*
X042556Y014725D02*
X042654Y014725D01*
X042851Y014725D02*
X042851Y014627D01*
X042851Y014725D02*
X043245Y014725D01*
X043245Y014627D02*
X043245Y014824D01*
X043245Y014376D02*
X042950Y014376D01*
X042851Y014278D01*
X042950Y014179D01*
X043245Y014179D01*
X043245Y013982D02*
X042851Y013982D01*
X042851Y014081D01*
X042950Y014179D01*
X042851Y013732D02*
X043245Y013732D01*
X043245Y013436D01*
X043147Y013338D01*
X042851Y013338D01*
X042950Y013087D02*
X043245Y013087D01*
X042950Y013087D02*
X042851Y012989D01*
X042851Y012693D01*
X043245Y012693D01*
X043048Y012442D02*
X043048Y012049D01*
X042950Y012049D02*
X042851Y012147D01*
X042851Y012344D01*
X042950Y012442D01*
X043048Y012442D01*
X043245Y012344D02*
X043245Y012147D01*
X043147Y012049D01*
X042950Y012049D01*
X042851Y011798D02*
X043245Y011798D01*
X043245Y011503D01*
X043147Y011404D01*
X042851Y011404D01*
X043245Y011171D02*
X043245Y010975D01*
X043245Y011073D02*
X042654Y011073D01*
X042654Y010975D01*
X042753Y010724D02*
X042654Y010625D01*
X042654Y010330D01*
X043245Y010330D01*
X043245Y010625D01*
X043147Y010724D01*
X043048Y010724D01*
X042950Y010625D01*
X042950Y010330D01*
X042950Y010625D02*
X042851Y010724D01*
X042753Y010724D01*
X041995Y011303D02*
X041995Y011599D01*
X042093Y011599D02*
X041601Y011599D01*
X041601Y011303D01*
X041700Y011205D01*
X041897Y011205D01*
X041995Y011303D01*
X042192Y011402D02*
X042192Y011500D01*
X042093Y011599D01*
X041995Y011850D02*
X041995Y012046D01*
X041995Y011948D02*
X041601Y011948D01*
X041601Y011850D01*
X041404Y011948D02*
X041306Y011948D01*
X041601Y012279D02*
X041601Y012673D01*
X041995Y012279D01*
X041995Y012673D01*
X041995Y012924D02*
X041601Y012924D01*
X041601Y013022D01*
X041700Y013121D01*
X041601Y013219D01*
X041700Y013317D01*
X041995Y013317D01*
X041995Y013121D02*
X041700Y013121D01*
X041700Y013568D02*
X041897Y013568D01*
X041995Y013667D01*
X041995Y013864D01*
X041897Y013962D01*
X041700Y013962D01*
X041601Y013864D01*
X041601Y013667D01*
X041700Y013568D01*
X041995Y014213D02*
X041995Y014410D01*
X041995Y014311D02*
X041404Y014311D01*
X041404Y014213D01*
X041250Y009421D02*
X041250Y008830D01*
X041643Y008830D01*
X041894Y008830D02*
X041894Y009421D01*
X041894Y009027D02*
X042288Y009421D01*
X041993Y009125D02*
X042288Y008830D01*
X042189Y008421D02*
X041993Y008421D01*
X041894Y008322D01*
X041894Y008224D01*
X041993Y008125D01*
X042189Y008125D01*
X042288Y008027D01*
X042288Y007928D01*
X042189Y007830D01*
X041993Y007830D01*
X041894Y007928D01*
X041446Y007830D02*
X041446Y008421D01*
X041250Y008421D02*
X041643Y008421D01*
X042189Y008421D02*
X042288Y008322D01*
X040999Y008322D02*
X040900Y008421D01*
X040703Y008421D01*
X040605Y008322D01*
X040605Y007928D01*
X040703Y007830D01*
X040900Y007830D01*
X040999Y007928D01*
X040999Y007421D02*
X040605Y007421D01*
X040605Y007125D01*
X040802Y007224D01*
X040900Y007224D01*
X040999Y007125D01*
X040999Y006928D01*
X040900Y006830D01*
X040703Y006830D01*
X040605Y006928D01*
X041250Y007027D02*
X041446Y006830D01*
X041643Y007027D01*
X041643Y007421D01*
X041250Y007421D02*
X041250Y007027D01*
X041250Y006421D02*
X041643Y005830D01*
X041894Y005830D02*
X042091Y005830D01*
X041993Y005830D02*
X041993Y006421D01*
X042091Y006421D02*
X041894Y006421D01*
X041643Y006421D02*
X041250Y005830D01*
X040999Y005830D02*
X040802Y006027D01*
X040900Y006027D02*
X040605Y006027D01*
X040605Y005830D02*
X040605Y006421D01*
X040900Y006421D01*
X040999Y006322D01*
X040999Y006125D01*
X040900Y006027D01*
X040802Y005421D02*
X040802Y004830D01*
X041250Y004830D02*
X041643Y005421D01*
X041894Y005322D02*
X041894Y004928D01*
X041993Y004830D01*
X042189Y004830D01*
X042288Y004928D01*
X042288Y005322D01*
X042189Y005421D01*
X041993Y005421D01*
X041894Y005322D01*
X041643Y004830D02*
X041250Y005421D01*
X040999Y005421D02*
X040605Y005421D01*
X040703Y004421D02*
X040605Y004322D01*
X040605Y003928D01*
X040703Y003830D01*
X040900Y003830D01*
X040999Y003928D01*
X040999Y004125D01*
X040802Y004125D01*
X040999Y004322D02*
X040900Y004421D01*
X040703Y004421D01*
X041250Y004421D02*
X041545Y004421D01*
X041643Y004322D01*
X041643Y004125D01*
X041545Y004027D01*
X041250Y004027D01*
X041446Y004027D02*
X041643Y003830D01*
X041894Y003830D02*
X041894Y004421D01*
X042288Y003830D01*
X042288Y004421D01*
X041250Y004421D02*
X041250Y003830D01*
X040900Y008830D02*
X040605Y008830D01*
X040605Y009421D01*
X040900Y009421D01*
X040999Y009322D01*
X040999Y009224D01*
X040900Y009125D01*
X040605Y009125D01*
X040900Y009125D02*
X040999Y009027D01*
X040999Y008928D01*
X040900Y008830D01*
D12*
X040000Y008900D02*
X040000Y009400D01*
X039750Y009650D01*
X039250Y009650D01*
X039000Y009400D01*
X039000Y008900D01*
X039250Y008650D01*
X039750Y008650D01*
X040000Y008400D01*
X040000Y007900D01*
X039750Y007650D01*
X039250Y007650D01*
X039000Y007900D01*
X039000Y008400D01*
X039250Y008650D01*
X039750Y008650D02*
X040000Y008900D01*
X038250Y008293D02*
X038250Y007500D01*
X039000Y007400D02*
X039250Y007650D01*
X039000Y007400D02*
X039000Y006900D01*
X039250Y006650D01*
X039750Y006650D01*
X040000Y006400D01*
X040000Y005900D01*
X039750Y005650D01*
X039250Y005650D01*
X039000Y005900D01*
X039000Y006400D01*
X039250Y006650D01*
X039750Y006650D02*
X040000Y006900D01*
X040000Y007400D01*
X039750Y007650D01*
X037900Y006700D02*
X036200Y006700D01*
X036050Y006450D02*
X038050Y006450D01*
X038050Y006150D01*
X038150Y006150D01*
X038050Y006150D02*
X038050Y005850D01*
X036050Y005850D01*
X036050Y006150D01*
X035950Y006150D01*
X036050Y006150D02*
X036050Y006450D01*
X035850Y007500D02*
X035850Y008305D01*
X036200Y009100D02*
X037900Y009100D01*
X038001Y009690D02*
X038001Y010110D01*
X037861Y009970D01*
X037721Y010110D01*
X037721Y009690D01*
X037541Y009690D02*
X037401Y009830D01*
X037471Y009830D02*
X037261Y009830D01*
X037261Y009690D02*
X037261Y010110D01*
X037471Y010110D01*
X037541Y010040D01*
X037541Y009900D01*
X037471Y009830D01*
X037081Y009690D02*
X036800Y009690D01*
X036800Y010110D01*
X036620Y009970D02*
X036620Y009690D01*
X036620Y009900D02*
X036340Y009900D01*
X036340Y009970D02*
X036480Y010110D01*
X036620Y009970D01*
X036340Y009970D02*
X036340Y009690D01*
X039333Y011193D02*
X039333Y013193D01*
X039633Y013193D01*
X039633Y013293D01*
X039633Y013193D02*
X039933Y013193D01*
X039933Y011193D01*
X039633Y011193D01*
X039633Y011093D01*
X039633Y011193D02*
X039333Y011193D01*
X036350Y007900D02*
X036352Y007952D01*
X036358Y008004D01*
X036368Y008056D01*
X036381Y008106D01*
X036398Y008156D01*
X036419Y008204D01*
X036444Y008250D01*
X036472Y008294D01*
X036503Y008336D01*
X036537Y008376D01*
X036574Y008413D01*
X036614Y008447D01*
X036656Y008478D01*
X036700Y008506D01*
X036746Y008531D01*
X036794Y008552D01*
X036844Y008569D01*
X036894Y008582D01*
X036946Y008592D01*
X036998Y008598D01*
X037050Y008600D01*
X037102Y008598D01*
X037154Y008592D01*
X037206Y008582D01*
X037256Y008569D01*
X037306Y008552D01*
X037354Y008531D01*
X037400Y008506D01*
X037444Y008478D01*
X037486Y008447D01*
X037526Y008413D01*
X037563Y008376D01*
X037597Y008336D01*
X037628Y008294D01*
X037656Y008250D01*
X037681Y008204D01*
X037702Y008156D01*
X037719Y008106D01*
X037732Y008056D01*
X037742Y008004D01*
X037748Y007952D01*
X037750Y007900D01*
X037748Y007848D01*
X037742Y007796D01*
X037732Y007744D01*
X037719Y007694D01*
X037702Y007644D01*
X037681Y007596D01*
X037656Y007550D01*
X037628Y007506D01*
X037597Y007464D01*
X037563Y007424D01*
X037526Y007387D01*
X037486Y007353D01*
X037444Y007322D01*
X037400Y007294D01*
X037354Y007269D01*
X037306Y007248D01*
X037256Y007231D01*
X037206Y007218D01*
X037154Y007208D01*
X037102Y007202D01*
X037050Y007200D01*
X036998Y007202D01*
X036946Y007208D01*
X036894Y007218D01*
X036844Y007231D01*
X036794Y007248D01*
X036746Y007269D01*
X036700Y007294D01*
X036656Y007322D01*
X036614Y007353D01*
X036574Y007387D01*
X036537Y007424D01*
X036503Y007464D01*
X036472Y007506D01*
X036444Y007550D01*
X036419Y007596D01*
X036398Y007644D01*
X036381Y007694D01*
X036368Y007744D01*
X036358Y007796D01*
X036352Y007848D01*
X036350Y007900D01*
X039000Y005400D02*
X039250Y005650D01*
X039000Y005400D02*
X039000Y004900D01*
X039250Y004650D01*
X039750Y004650D01*
X040000Y004400D01*
X040000Y003900D01*
X039750Y003650D01*
X039250Y003650D01*
X039000Y003900D01*
X039000Y004400D01*
X039250Y004650D01*
X039750Y004650D02*
X040000Y004900D01*
X040000Y005400D01*
X039750Y005650D01*
X038050Y003400D02*
X038050Y002900D01*
X037925Y002610D02*
X037785Y002610D01*
X037715Y002540D01*
X037715Y002260D01*
X037785Y002190D01*
X037925Y002190D01*
X037995Y002260D01*
X038175Y002190D02*
X038456Y002470D01*
X038456Y002540D01*
X038386Y002610D01*
X038245Y002610D01*
X038175Y002540D01*
X037995Y002540D02*
X037925Y002610D01*
X038175Y002190D02*
X038456Y002190D01*
X036456Y002260D02*
X036386Y002190D01*
X036245Y002190D01*
X036175Y002260D01*
X035995Y002260D02*
X035925Y002190D01*
X035785Y002190D01*
X035715Y002260D01*
X035715Y002540D01*
X035785Y002610D01*
X035925Y002610D01*
X035995Y002540D01*
X036175Y002540D02*
X036245Y002610D01*
X036386Y002610D01*
X036456Y002540D01*
X036456Y002470D01*
X036386Y002400D01*
X036456Y002330D01*
X036456Y002260D01*
X036386Y002400D02*
X036316Y002400D01*
X036050Y002900D02*
X036050Y003400D01*
X029928Y004510D02*
X029858Y004440D01*
X029718Y004440D01*
X029648Y004510D01*
X029648Y004580D01*
X029718Y004650D01*
X029858Y004650D01*
X029928Y004580D01*
X029928Y004510D01*
X029858Y004650D02*
X029928Y004720D01*
X029928Y004790D01*
X029858Y004860D01*
X029718Y004860D01*
X029648Y004790D01*
X029648Y004720D01*
X029718Y004650D01*
X029468Y004720D02*
X029188Y004440D01*
X029468Y004440D01*
X029468Y004720D02*
X029468Y004790D01*
X029398Y004860D01*
X029258Y004860D01*
X029188Y004790D01*
X029008Y004790D02*
X028938Y004860D01*
X028797Y004860D01*
X028727Y004790D01*
X028547Y004720D02*
X028547Y004440D01*
X028727Y004510D02*
X028797Y004440D01*
X028938Y004440D01*
X029008Y004510D01*
X029008Y004580D01*
X028938Y004650D01*
X028867Y004650D01*
X028938Y004650D02*
X029008Y004720D01*
X029008Y004790D01*
X028547Y004720D02*
X028407Y004860D01*
X028267Y004720D01*
X028267Y004440D01*
X028087Y004510D02*
X028087Y004650D01*
X027947Y004650D01*
X028087Y004510D02*
X028017Y004440D01*
X027877Y004440D01*
X027807Y004510D01*
X027807Y004790D01*
X027877Y004860D01*
X028017Y004860D01*
X028087Y004790D01*
X028267Y004650D02*
X028547Y004650D01*
X027626Y004440D02*
X027346Y004440D01*
X027346Y004860D01*
X027626Y004860D01*
X027486Y004650D02*
X027346Y004650D01*
X027166Y004860D02*
X027166Y004440D01*
X026886Y004440D02*
X026886Y004860D01*
X027026Y004720D01*
X027166Y004860D01*
X026706Y004860D02*
X026425Y004860D01*
X026566Y004860D02*
X026566Y004440D01*
X026245Y004440D02*
X026245Y004720D01*
X026105Y004860D01*
X025965Y004720D01*
X025965Y004440D01*
X025965Y004650D02*
X026245Y004650D01*
X028715Y007010D02*
X028785Y006940D01*
X028925Y006940D01*
X028995Y007010D01*
X029175Y007150D02*
X029386Y007360D01*
X029386Y006940D01*
X029456Y007150D02*
X029175Y007150D01*
X028995Y007290D02*
X028925Y007360D01*
X028785Y007360D01*
X028715Y007290D01*
X028715Y007010D01*
X029050Y007650D02*
X029050Y008150D01*
X027141Y011400D02*
X027141Y012900D01*
X027291Y015150D02*
X024991Y015150D01*
X024991Y015250D01*
X027291Y015250D02*
X027291Y015150D01*
X029000Y015150D02*
X029000Y017150D01*
X029300Y017150D01*
X029300Y017250D01*
X029300Y017150D02*
X029600Y017150D01*
X029600Y015150D01*
X029300Y015150D01*
X029300Y015050D01*
X029300Y015150D02*
X029000Y015150D01*
X031290Y015150D02*
X031290Y015250D01*
X031290Y015150D02*
X033590Y015150D01*
X033590Y015250D01*
X035250Y015150D02*
X035250Y017150D01*
X035550Y017150D01*
X035550Y017250D01*
X035550Y017150D02*
X035850Y017150D01*
X035850Y015150D01*
X035550Y015150D01*
X035550Y015050D01*
X035550Y015150D02*
X035250Y015150D01*
X038500Y015150D02*
X038500Y017150D01*
X038800Y017150D01*
X038800Y017250D01*
X038800Y017150D02*
X039100Y017150D01*
X039100Y015150D01*
X038800Y015150D01*
X038800Y015050D01*
X038800Y015150D02*
X038500Y015150D01*
X037456Y017565D02*
X037175Y017565D01*
X037316Y017565D02*
X037316Y017985D01*
X037175Y017845D01*
X036995Y017985D02*
X036715Y017985D01*
X036855Y017985D02*
X036855Y017565D01*
X035550Y019050D02*
X035550Y019150D01*
X035250Y019150D01*
X035250Y021150D01*
X035550Y021150D01*
X035550Y021250D01*
X035550Y021150D02*
X035850Y021150D01*
X035850Y019150D01*
X035550Y019150D01*
X037215Y020065D02*
X037425Y020065D01*
X037495Y020135D01*
X037495Y020205D01*
X037425Y020275D01*
X037215Y020275D01*
X037215Y020065D02*
X037215Y020485D01*
X037425Y020485D01*
X037495Y020415D01*
X037495Y020345D01*
X037425Y020275D01*
X037675Y020135D02*
X037675Y020485D01*
X037956Y020485D02*
X037956Y020135D01*
X037886Y020065D01*
X037745Y020065D01*
X037675Y020135D01*
X038136Y020135D02*
X038136Y020065D01*
X038416Y020065D01*
X038596Y020065D02*
X038876Y020065D01*
X039057Y020065D02*
X039337Y020065D01*
X039517Y020065D02*
X039517Y020485D01*
X039727Y020485D01*
X039797Y020415D01*
X039797Y020275D01*
X039727Y020205D01*
X039517Y020205D01*
X039657Y020205D02*
X039797Y020065D01*
X039337Y020485D02*
X039057Y020485D01*
X039057Y020065D01*
X039057Y020275D02*
X039197Y020275D01*
X038876Y020415D02*
X038596Y020135D01*
X038596Y020065D01*
X038416Y020415D02*
X038136Y020135D01*
X038136Y020485D02*
X038416Y020485D01*
X038416Y020415D01*
X038596Y020485D02*
X038876Y020485D01*
X038876Y020415D01*
X040965Y019485D02*
X040965Y019065D01*
X041175Y019065D01*
X041245Y019135D01*
X041245Y019415D01*
X041175Y019485D01*
X040965Y019485D01*
X041425Y019415D02*
X041495Y019485D01*
X041636Y019485D01*
X041706Y019415D01*
X041706Y019345D01*
X041425Y019065D01*
X041706Y019065D01*
X033590Y023050D02*
X033590Y023150D01*
X032840Y023150D01*
X032838Y023111D01*
X032832Y023072D01*
X032823Y023034D01*
X032810Y022997D01*
X032793Y022961D01*
X032773Y022928D01*
X032749Y022896D01*
X032723Y022867D01*
X032694Y022841D01*
X032662Y022817D01*
X032629Y022797D01*
X032593Y022780D01*
X032556Y022767D01*
X032518Y022758D01*
X032479Y022752D01*
X032440Y022750D01*
X032401Y022752D01*
X032362Y022758D01*
X032324Y022767D01*
X032287Y022780D01*
X032251Y022797D01*
X032218Y022817D01*
X032186Y022841D01*
X032157Y022867D01*
X032131Y022896D01*
X032107Y022928D01*
X032087Y022961D01*
X032070Y022997D01*
X032057Y023034D01*
X032048Y023072D01*
X032042Y023111D01*
X032040Y023150D01*
X031290Y023150D01*
X031290Y023050D01*
X032215Y021858D02*
X032285Y021717D01*
X032425Y021577D01*
X032425Y021788D01*
X032495Y021858D01*
X032565Y021858D01*
X032635Y021788D01*
X032635Y021647D01*
X032565Y021577D01*
X032425Y021577D01*
X032635Y021397D02*
X032635Y021117D01*
X032635Y021257D02*
X032215Y021257D01*
X032355Y021117D01*
X032425Y020937D02*
X032425Y020727D01*
X032355Y020657D01*
X032285Y020657D01*
X032215Y020727D01*
X032215Y020867D01*
X032285Y020937D01*
X032565Y020937D01*
X032635Y020867D01*
X032635Y020727D01*
X032565Y020657D01*
X032565Y020476D02*
X032635Y020406D01*
X032635Y020266D01*
X032565Y020196D01*
X032425Y020196D02*
X032355Y020336D01*
X032355Y020406D01*
X032425Y020476D01*
X032565Y020476D01*
X032425Y020196D02*
X032215Y020196D01*
X032215Y020476D01*
X032285Y020016D02*
X032215Y019946D01*
X032215Y019806D01*
X032285Y019736D01*
X032565Y019736D01*
X032635Y019806D01*
X032635Y019946D01*
X032565Y020016D01*
X032635Y019556D02*
X032635Y019275D01*
X032215Y019275D01*
X032215Y019095D02*
X032215Y018815D01*
X032215Y018955D02*
X032635Y018955D01*
X029600Y019150D02*
X029300Y019150D01*
X029300Y019050D01*
X029300Y019150D02*
X029000Y019150D01*
X029000Y021150D01*
X029300Y021150D01*
X029300Y021250D01*
X029300Y021150D02*
X029600Y021150D01*
X029600Y019150D01*
X026385Y019080D02*
X025965Y019080D01*
X025965Y018940D02*
X025965Y019220D01*
X025965Y019400D02*
X026385Y019400D01*
X026385Y019681D01*
X026315Y019861D02*
X026385Y019931D01*
X026385Y020071D01*
X026315Y020141D01*
X026315Y020321D02*
X026385Y020391D01*
X026385Y020531D01*
X026315Y020601D01*
X026175Y020601D01*
X026105Y020531D01*
X026105Y020461D01*
X026175Y020321D01*
X025965Y020321D01*
X025965Y020601D01*
X026035Y020782D02*
X026105Y020782D01*
X026175Y020852D01*
X026175Y021062D01*
X026315Y021062D02*
X026035Y021062D01*
X025965Y020992D01*
X025965Y020852D01*
X026035Y020782D01*
X026315Y020782D02*
X026385Y020852D01*
X026385Y020992D01*
X026315Y021062D01*
X026385Y021242D02*
X026385Y021522D01*
X026385Y021382D02*
X025965Y021382D01*
X026105Y021242D01*
X026175Y021702D02*
X026175Y021913D01*
X026245Y021983D01*
X026315Y021983D01*
X026385Y021913D01*
X026385Y021772D01*
X026315Y021702D01*
X026175Y021702D01*
X026035Y021842D01*
X025965Y021983D01*
X025741Y023150D02*
X025743Y023111D01*
X025749Y023072D01*
X025758Y023034D01*
X025771Y022997D01*
X025788Y022961D01*
X025808Y022928D01*
X025832Y022896D01*
X025858Y022867D01*
X025887Y022841D01*
X025919Y022817D01*
X025952Y022797D01*
X025988Y022780D01*
X026025Y022767D01*
X026063Y022758D01*
X026102Y022752D01*
X026141Y022750D01*
X026180Y022752D01*
X026219Y022758D01*
X026257Y022767D01*
X026294Y022780D01*
X026330Y022797D01*
X026363Y022817D01*
X026395Y022841D01*
X026424Y022867D01*
X026450Y022896D01*
X026474Y022928D01*
X026494Y022961D01*
X026511Y022997D01*
X026524Y023034D01*
X026533Y023072D01*
X026539Y023111D01*
X026541Y023150D01*
X027291Y023150D01*
X027291Y023050D01*
X025741Y023150D02*
X024991Y023150D01*
X024991Y023050D01*
X021600Y021150D02*
X021300Y021150D01*
X021300Y021250D01*
X021300Y021150D02*
X021000Y021150D01*
X021000Y019150D01*
X021300Y019150D01*
X021300Y019050D01*
X021300Y019150D02*
X021600Y019150D01*
X021600Y021150D01*
X018510Y021117D02*
X018510Y021397D01*
X018510Y021257D02*
X018090Y021257D01*
X018230Y021117D01*
X018300Y020937D02*
X018300Y020727D01*
X018230Y020657D01*
X018160Y020657D01*
X018090Y020727D01*
X018090Y020867D01*
X018160Y020937D01*
X018440Y020937D01*
X018510Y020867D01*
X018510Y020727D01*
X018440Y020657D01*
X018440Y020476D02*
X018510Y020406D01*
X018510Y020266D01*
X018440Y020196D01*
X018300Y020196D02*
X018230Y020336D01*
X018230Y020406D01*
X018300Y020476D01*
X018440Y020476D01*
X018300Y020196D02*
X018090Y020196D01*
X018090Y020476D01*
X018160Y020016D02*
X018090Y019946D01*
X018090Y019806D01*
X018160Y019736D01*
X018440Y019736D01*
X018510Y019806D01*
X018510Y019946D01*
X018440Y020016D01*
X018510Y019556D02*
X018510Y019275D01*
X018090Y019275D01*
X018090Y019095D02*
X018090Y018815D01*
X018090Y018955D02*
X018510Y018955D01*
X015475Y019150D02*
X015175Y019150D01*
X015175Y019050D01*
X015175Y019150D02*
X014875Y019150D01*
X014875Y021150D01*
X015175Y021150D01*
X015175Y021250D01*
X015175Y021150D02*
X015475Y021150D01*
X015475Y019150D01*
X015175Y017250D02*
X015175Y017150D01*
X015475Y017150D01*
X015475Y015150D01*
X015175Y015150D01*
X015175Y015050D01*
X015175Y015150D02*
X014875Y015150D01*
X014875Y017150D01*
X015175Y017150D01*
X012260Y018955D02*
X011840Y018955D01*
X011840Y018815D02*
X011840Y019095D01*
X011840Y019275D02*
X012260Y019275D01*
X012260Y019556D01*
X012190Y019736D02*
X012260Y019806D01*
X012260Y019946D01*
X012190Y020016D01*
X012190Y020196D02*
X012260Y020266D01*
X012260Y020406D01*
X012190Y020476D01*
X012050Y020476D01*
X011980Y020406D01*
X011980Y020336D01*
X012050Y020196D01*
X011840Y020196D01*
X011840Y020476D01*
X011910Y020657D02*
X011840Y020727D01*
X011840Y020867D01*
X011910Y020937D01*
X012190Y020937D01*
X012260Y020867D01*
X012260Y020727D01*
X012190Y020657D01*
X012050Y020727D02*
X012050Y020937D01*
X011980Y021117D02*
X011840Y021257D01*
X012260Y021257D01*
X012260Y021117D02*
X012260Y021397D01*
X012190Y021577D02*
X012260Y021647D01*
X012260Y021788D01*
X012190Y021858D01*
X012120Y021858D01*
X012050Y021788D01*
X012050Y021577D01*
X012190Y021577D01*
X012050Y021577D02*
X011910Y021717D01*
X011840Y021858D01*
X012050Y020727D02*
X011980Y020657D01*
X011910Y020657D01*
X011910Y020016D02*
X011840Y019946D01*
X011840Y019806D01*
X011910Y019736D01*
X012190Y019736D01*
X009475Y021469D02*
X005932Y021469D01*
X005932Y019382D01*
X003456Y019885D02*
X003456Y019955D01*
X003386Y020025D01*
X003175Y020025D01*
X003175Y019885D01*
X003245Y019815D01*
X003386Y019815D01*
X003456Y019885D01*
X003316Y020165D02*
X003175Y020025D01*
X003316Y020165D02*
X003456Y020235D01*
X002995Y020165D02*
X002925Y020235D01*
X002785Y020235D01*
X002715Y020165D01*
X002715Y019885D01*
X002785Y019815D01*
X002925Y019815D01*
X002995Y019885D01*
X002700Y018762D02*
X002200Y018762D01*
X001970Y018400D02*
X001972Y018462D01*
X001978Y018525D01*
X001988Y018586D01*
X002002Y018647D01*
X002019Y018707D01*
X002040Y018766D01*
X002066Y018823D01*
X002094Y018878D01*
X002126Y018932D01*
X002162Y018983D01*
X002200Y019033D01*
X002242Y019079D01*
X002286Y019123D01*
X002334Y019164D01*
X002383Y019202D01*
X002435Y019236D01*
X002489Y019267D01*
X002545Y019295D01*
X002603Y019319D01*
X002662Y019340D01*
X002722Y019356D01*
X002783Y019369D01*
X002845Y019378D01*
X002907Y019383D01*
X002970Y019384D01*
X003032Y019381D01*
X003094Y019374D01*
X003156Y019363D01*
X003216Y019348D01*
X003276Y019330D01*
X003334Y019308D01*
X003391Y019282D01*
X003446Y019252D01*
X003499Y019219D01*
X003550Y019183D01*
X003598Y019144D01*
X003644Y019101D01*
X003687Y019056D01*
X003727Y019008D01*
X003764Y018958D01*
X003798Y018905D01*
X003829Y018851D01*
X003855Y018795D01*
X003879Y018737D01*
X003898Y018677D01*
X003914Y018617D01*
X003926Y018555D01*
X003934Y018494D01*
X003938Y018431D01*
X003938Y018369D01*
X003934Y018306D01*
X003926Y018245D01*
X003914Y018183D01*
X003898Y018123D01*
X003879Y018063D01*
X003855Y018005D01*
X003829Y017949D01*
X003798Y017895D01*
X003764Y017842D01*
X003727Y017792D01*
X003687Y017744D01*
X003644Y017699D01*
X003598Y017656D01*
X003550Y017617D01*
X003499Y017581D01*
X003446Y017548D01*
X003391Y017518D01*
X003334Y017492D01*
X003276Y017470D01*
X003216Y017452D01*
X003156Y017437D01*
X003094Y017426D01*
X003032Y017419D01*
X002970Y017416D01*
X002907Y017417D01*
X002845Y017422D01*
X002783Y017431D01*
X002722Y017444D01*
X002662Y017460D01*
X002603Y017481D01*
X002545Y017505D01*
X002489Y017533D01*
X002435Y017564D01*
X002383Y017598D01*
X002334Y017636D01*
X002286Y017677D01*
X002242Y017721D01*
X002200Y017767D01*
X002162Y017817D01*
X002126Y017868D01*
X002094Y017922D01*
X002066Y017977D01*
X002040Y018034D01*
X002019Y018093D01*
X002002Y018153D01*
X001988Y018214D01*
X001978Y018275D01*
X001972Y018338D01*
X001970Y018400D01*
X005932Y017532D02*
X005932Y017256D01*
X006759Y017256D01*
X008648Y017256D02*
X009475Y017256D01*
X009475Y021469D01*
X010817Y023050D02*
X010817Y023150D01*
X011567Y023150D01*
X011569Y023111D01*
X011575Y023072D01*
X011584Y023034D01*
X011597Y022997D01*
X011614Y022961D01*
X011634Y022928D01*
X011658Y022896D01*
X011684Y022867D01*
X011713Y022841D01*
X011745Y022817D01*
X011778Y022797D01*
X011814Y022780D01*
X011851Y022767D01*
X011889Y022758D01*
X011928Y022752D01*
X011967Y022750D01*
X012006Y022752D01*
X012045Y022758D01*
X012083Y022767D01*
X012120Y022780D01*
X012156Y022797D01*
X012189Y022817D01*
X012221Y022841D01*
X012250Y022867D01*
X012276Y022896D01*
X012300Y022928D01*
X012320Y022961D01*
X012337Y022997D01*
X012350Y023034D01*
X012359Y023072D01*
X012365Y023111D01*
X012367Y023150D01*
X013117Y023150D01*
X013117Y023050D01*
X017117Y023050D02*
X017117Y023150D01*
X017867Y023150D01*
X017869Y023111D01*
X017875Y023072D01*
X017884Y023034D01*
X017897Y022997D01*
X017914Y022961D01*
X017934Y022928D01*
X017958Y022896D01*
X017984Y022867D01*
X018013Y022841D01*
X018045Y022817D01*
X018078Y022797D01*
X018114Y022780D01*
X018151Y022767D01*
X018189Y022758D01*
X018228Y022752D01*
X018267Y022750D01*
X018306Y022752D01*
X018345Y022758D01*
X018383Y022767D01*
X018420Y022780D01*
X018456Y022797D01*
X018489Y022817D01*
X018521Y022841D01*
X018550Y022867D01*
X018576Y022896D01*
X018600Y022928D01*
X018620Y022961D01*
X018637Y022997D01*
X018650Y023034D01*
X018659Y023072D01*
X018665Y023111D01*
X018667Y023150D01*
X019417Y023150D01*
X019417Y023050D01*
X018440Y021858D02*
X018370Y021858D01*
X018300Y021788D01*
X018300Y021577D01*
X018440Y021577D01*
X018510Y021647D01*
X018510Y021788D01*
X018440Y021858D01*
X018160Y021717D02*
X018300Y021577D01*
X018160Y021717D02*
X018090Y021858D01*
X025965Y020071D02*
X025965Y019931D01*
X026035Y019861D01*
X026315Y019861D01*
X026035Y020141D02*
X025965Y020071D01*
X021600Y017150D02*
X021300Y017150D01*
X021300Y017250D01*
X021300Y017150D02*
X021000Y017150D01*
X021000Y015150D01*
X021300Y015150D01*
X021300Y015050D01*
X021300Y015150D02*
X021600Y015150D01*
X021600Y017150D01*
X019417Y015250D02*
X019417Y015150D01*
X017117Y015150D01*
X017117Y015250D01*
X013117Y015250D02*
X013117Y015150D01*
X010817Y015150D01*
X010817Y015250D01*
X008001Y014735D02*
X008001Y014315D01*
X007721Y014315D02*
X007721Y014735D01*
X007861Y014595D01*
X008001Y014735D01*
X007541Y014665D02*
X007541Y014525D01*
X007471Y014455D01*
X007261Y014455D01*
X007261Y014315D02*
X007261Y014735D01*
X007471Y014735D01*
X007541Y014665D01*
X007081Y014735D02*
X007081Y014315D01*
X006800Y014315D02*
X006800Y014735D01*
X006941Y014595D01*
X007081Y014735D01*
X006620Y014595D02*
X006620Y014315D01*
X006620Y014525D02*
X006340Y014525D01*
X006340Y014595D02*
X006480Y014735D01*
X006620Y014595D01*
X006340Y014595D02*
X006340Y014315D01*
X005181Y013150D02*
X005181Y011150D01*
X004881Y011150D01*
X004881Y011050D01*
X004881Y011150D02*
X004581Y011150D01*
X004581Y013150D01*
X004881Y013150D01*
X004881Y013250D01*
X004881Y013150D02*
X005181Y013150D01*
X003456Y015315D02*
X003175Y015315D01*
X003316Y015315D02*
X003316Y015735D01*
X003175Y015595D01*
X002995Y015665D02*
X002995Y015385D01*
X002925Y015315D01*
X002715Y015315D01*
X002715Y015735D01*
X002925Y015735D01*
X002995Y015665D01*
X012967Y012900D02*
X012967Y011400D01*
X019267Y011400D02*
X019267Y012900D01*
X022050Y008150D02*
X022050Y007650D01*
X021925Y007360D02*
X021785Y007360D01*
X021715Y007290D01*
X021715Y007010D01*
X021785Y006940D01*
X021925Y006940D01*
X021995Y007010D01*
X022175Y007010D02*
X022245Y006940D01*
X022386Y006940D01*
X022456Y007010D01*
X022456Y007150D01*
X022386Y007220D01*
X022316Y007220D01*
X022175Y007150D01*
X022175Y007360D01*
X022456Y007360D01*
X021995Y007290D02*
X021925Y007360D01*
X017510Y005492D02*
X017440Y005492D01*
X017160Y005772D01*
X017090Y005772D01*
X017090Y005492D01*
X017160Y005312D02*
X017440Y005032D01*
X017510Y005102D01*
X017510Y005242D01*
X017440Y005312D01*
X017160Y005312D01*
X017090Y005242D01*
X017090Y005102D01*
X017160Y005032D01*
X017440Y005032D01*
X017440Y004851D02*
X017510Y004781D01*
X017510Y004641D01*
X017440Y004571D01*
X017510Y004391D02*
X017510Y004111D01*
X017510Y004251D02*
X017090Y004251D01*
X017230Y004111D01*
X017160Y003931D02*
X017090Y003861D01*
X017090Y003720D01*
X017160Y003650D01*
X017230Y003650D01*
X017300Y003720D01*
X017300Y003861D01*
X017370Y003931D01*
X017440Y003931D01*
X017510Y003861D01*
X017510Y003720D01*
X017440Y003650D01*
X017440Y003470D02*
X017160Y003470D01*
X017090Y003400D01*
X017090Y003190D01*
X017510Y003190D01*
X017510Y003400D01*
X017440Y003470D01*
X017160Y004571D02*
X017090Y004641D01*
X017090Y004781D01*
X017160Y004851D01*
X017230Y004851D01*
X017300Y004781D01*
X017370Y004851D01*
X017440Y004851D01*
X017300Y004781D02*
X017300Y004711D01*
X011711Y004219D02*
X010530Y004219D01*
X011711Y004219D02*
X011711Y007369D01*
X010530Y007369D01*
X010448Y007559D01*
X010357Y007745D01*
X010257Y007927D01*
X010149Y008103D01*
X010032Y008274D01*
X009907Y008439D01*
X009773Y008598D01*
X009633Y008750D01*
X009485Y008895D01*
X009330Y009033D01*
X009168Y009162D01*
X009001Y009284D01*
X008827Y009398D01*
X008649Y009502D01*
X008465Y009598D01*
X008277Y009685D01*
X008085Y009763D01*
X007889Y009831D01*
X007690Y009890D01*
X007489Y009938D01*
X007285Y009977D01*
X007080Y010006D01*
X006874Y010025D01*
X006667Y010033D01*
X006460Y010032D01*
X006253Y010020D01*
X006047Y009999D01*
X005842Y009967D01*
X005639Y009925D01*
X005438Y009874D01*
X005241Y009813D01*
X005046Y009742D01*
X004855Y009661D01*
X004668Y009572D01*
X004486Y009473D01*
X004309Y009366D01*
X004137Y009250D01*
X003971Y009126D01*
X003811Y008994D01*
X003658Y008854D01*
X003512Y008707D01*
X003374Y008553D01*
X003243Y008393D01*
X003120Y008226D01*
X003005Y008053D01*
X002899Y007875D01*
X002802Y007692D01*
X002714Y007505D01*
X002635Y007313D01*
X002565Y007118D01*
X002505Y006920D01*
X002455Y006719D01*
X002415Y006516D01*
X002385Y006311D01*
X002364Y006105D01*
X002354Y005898D01*
X002354Y005690D01*
X002364Y005483D01*
X002385Y005277D01*
X002415Y005072D01*
X002455Y004869D01*
X002505Y004668D01*
X002565Y004470D01*
X002635Y004275D01*
X002714Y004083D01*
X002802Y003896D01*
X002899Y003713D01*
X003005Y003535D01*
X003120Y003362D01*
X003243Y003195D01*
X003374Y003035D01*
X003512Y002881D01*
X003658Y002734D01*
X003811Y002594D01*
X003971Y002462D01*
X004137Y002338D01*
X004309Y002222D01*
X004486Y002115D01*
X004668Y002016D01*
X004855Y001927D01*
X005046Y001846D01*
X005241Y001775D01*
X005438Y001714D01*
X005639Y001663D01*
X005842Y001621D01*
X006047Y001589D01*
X006253Y001568D01*
X006460Y001556D01*
X006667Y001555D01*
X006874Y001563D01*
X007080Y001582D01*
X007285Y001611D01*
X007489Y001650D01*
X007690Y001698D01*
X007889Y001757D01*
X008085Y001825D01*
X008277Y001903D01*
X008465Y001990D01*
X008649Y002086D01*
X008827Y002190D01*
X009001Y002304D01*
X009168Y002426D01*
X009330Y002555D01*
X009485Y002693D01*
X009633Y002838D01*
X009773Y002990D01*
X009907Y003149D01*
X010032Y003314D01*
X010149Y003485D01*
X010257Y003661D01*
X010357Y003843D01*
X010448Y004029D01*
X010530Y004219D01*
X027215Y001290D02*
X027215Y001010D01*
X027285Y000940D01*
X027425Y000940D01*
X027495Y001010D01*
X027675Y000940D02*
X027956Y000940D01*
X027816Y000940D02*
X027816Y001360D01*
X027675Y001220D01*
X027495Y001290D02*
X027425Y001360D01*
X027285Y001360D01*
X027215Y001290D01*
X027550Y001650D02*
X027550Y002150D01*
X033440Y011400D02*
X033440Y012900D01*
D13*
X030440Y012150D02*
X030442Y012248D01*
X030450Y012346D01*
X030462Y012443D01*
X030478Y012540D01*
X030500Y012636D01*
X030526Y012731D01*
X030557Y012824D01*
X030592Y012915D01*
X030632Y013005D01*
X030676Y013093D01*
X030725Y013178D01*
X030777Y013261D01*
X030834Y013341D01*
X030894Y013419D01*
X030958Y013493D01*
X031026Y013564D01*
X031097Y013632D01*
X031171Y013696D01*
X031249Y013756D01*
X031329Y013813D01*
X031412Y013865D01*
X031497Y013914D01*
X031585Y013958D01*
X031675Y013998D01*
X031766Y014033D01*
X031859Y014064D01*
X031954Y014090D01*
X032050Y014112D01*
X032147Y014128D01*
X032244Y014140D01*
X032342Y014148D01*
X032440Y014150D01*
X032538Y014148D01*
X032636Y014140D01*
X032733Y014128D01*
X032830Y014112D01*
X032926Y014090D01*
X033021Y014064D01*
X033114Y014033D01*
X033205Y013998D01*
X033295Y013958D01*
X033383Y013914D01*
X033468Y013865D01*
X033551Y013813D01*
X033631Y013756D01*
X033709Y013696D01*
X033783Y013632D01*
X033854Y013564D01*
X033922Y013493D01*
X033986Y013419D01*
X034046Y013341D01*
X034103Y013261D01*
X034155Y013178D01*
X034204Y013093D01*
X034248Y013005D01*
X034288Y012915D01*
X034323Y012824D01*
X034354Y012731D01*
X034380Y012636D01*
X034402Y012540D01*
X034418Y012443D01*
X034430Y012346D01*
X034438Y012248D01*
X034440Y012150D01*
X034438Y012052D01*
X034430Y011954D01*
X034418Y011857D01*
X034402Y011760D01*
X034380Y011664D01*
X034354Y011569D01*
X034323Y011476D01*
X034288Y011385D01*
X034248Y011295D01*
X034204Y011207D01*
X034155Y011122D01*
X034103Y011039D01*
X034046Y010959D01*
X033986Y010881D01*
X033922Y010807D01*
X033854Y010736D01*
X033783Y010668D01*
X033709Y010604D01*
X033631Y010544D01*
X033551Y010487D01*
X033468Y010435D01*
X033383Y010386D01*
X033295Y010342D01*
X033205Y010302D01*
X033114Y010267D01*
X033021Y010236D01*
X032926Y010210D01*
X032830Y010188D01*
X032733Y010172D01*
X032636Y010160D01*
X032538Y010152D01*
X032440Y010150D01*
X032342Y010152D01*
X032244Y010160D01*
X032147Y010172D01*
X032050Y010188D01*
X031954Y010210D01*
X031859Y010236D01*
X031766Y010267D01*
X031675Y010302D01*
X031585Y010342D01*
X031497Y010386D01*
X031412Y010435D01*
X031329Y010487D01*
X031249Y010544D01*
X031171Y010604D01*
X031097Y010668D01*
X031026Y010736D01*
X030958Y010807D01*
X030894Y010881D01*
X030834Y010959D01*
X030777Y011039D01*
X030725Y011122D01*
X030676Y011207D01*
X030632Y011295D01*
X030592Y011385D01*
X030557Y011476D01*
X030526Y011569D01*
X030500Y011664D01*
X030478Y011760D01*
X030462Y011857D01*
X030450Y011954D01*
X030442Y012052D01*
X030440Y012150D01*
X024141Y012150D02*
X024143Y012248D01*
X024151Y012346D01*
X024163Y012443D01*
X024179Y012540D01*
X024201Y012636D01*
X024227Y012731D01*
X024258Y012824D01*
X024293Y012915D01*
X024333Y013005D01*
X024377Y013093D01*
X024426Y013178D01*
X024478Y013261D01*
X024535Y013341D01*
X024595Y013419D01*
X024659Y013493D01*
X024727Y013564D01*
X024798Y013632D01*
X024872Y013696D01*
X024950Y013756D01*
X025030Y013813D01*
X025113Y013865D01*
X025198Y013914D01*
X025286Y013958D01*
X025376Y013998D01*
X025467Y014033D01*
X025560Y014064D01*
X025655Y014090D01*
X025751Y014112D01*
X025848Y014128D01*
X025945Y014140D01*
X026043Y014148D01*
X026141Y014150D01*
X026239Y014148D01*
X026337Y014140D01*
X026434Y014128D01*
X026531Y014112D01*
X026627Y014090D01*
X026722Y014064D01*
X026815Y014033D01*
X026906Y013998D01*
X026996Y013958D01*
X027084Y013914D01*
X027169Y013865D01*
X027252Y013813D01*
X027332Y013756D01*
X027410Y013696D01*
X027484Y013632D01*
X027555Y013564D01*
X027623Y013493D01*
X027687Y013419D01*
X027747Y013341D01*
X027804Y013261D01*
X027856Y013178D01*
X027905Y013093D01*
X027949Y013005D01*
X027989Y012915D01*
X028024Y012824D01*
X028055Y012731D01*
X028081Y012636D01*
X028103Y012540D01*
X028119Y012443D01*
X028131Y012346D01*
X028139Y012248D01*
X028141Y012150D01*
X028139Y012052D01*
X028131Y011954D01*
X028119Y011857D01*
X028103Y011760D01*
X028081Y011664D01*
X028055Y011569D01*
X028024Y011476D01*
X027989Y011385D01*
X027949Y011295D01*
X027905Y011207D01*
X027856Y011122D01*
X027804Y011039D01*
X027747Y010959D01*
X027687Y010881D01*
X027623Y010807D01*
X027555Y010736D01*
X027484Y010668D01*
X027410Y010604D01*
X027332Y010544D01*
X027252Y010487D01*
X027169Y010435D01*
X027084Y010386D01*
X026996Y010342D01*
X026906Y010302D01*
X026815Y010267D01*
X026722Y010236D01*
X026627Y010210D01*
X026531Y010188D01*
X026434Y010172D01*
X026337Y010160D01*
X026239Y010152D01*
X026141Y010150D01*
X026043Y010152D01*
X025945Y010160D01*
X025848Y010172D01*
X025751Y010188D01*
X025655Y010210D01*
X025560Y010236D01*
X025467Y010267D01*
X025376Y010302D01*
X025286Y010342D01*
X025198Y010386D01*
X025113Y010435D01*
X025030Y010487D01*
X024950Y010544D01*
X024872Y010604D01*
X024798Y010668D01*
X024727Y010736D01*
X024659Y010807D01*
X024595Y010881D01*
X024535Y010959D01*
X024478Y011039D01*
X024426Y011122D01*
X024377Y011207D01*
X024333Y011295D01*
X024293Y011385D01*
X024258Y011476D01*
X024227Y011569D01*
X024201Y011664D01*
X024179Y011760D01*
X024163Y011857D01*
X024151Y011954D01*
X024143Y012052D01*
X024141Y012150D01*
X016267Y012150D02*
X016269Y012248D01*
X016277Y012346D01*
X016289Y012443D01*
X016305Y012540D01*
X016327Y012636D01*
X016353Y012731D01*
X016384Y012824D01*
X016419Y012915D01*
X016459Y013005D01*
X016503Y013093D01*
X016552Y013178D01*
X016604Y013261D01*
X016661Y013341D01*
X016721Y013419D01*
X016785Y013493D01*
X016853Y013564D01*
X016924Y013632D01*
X016998Y013696D01*
X017076Y013756D01*
X017156Y013813D01*
X017239Y013865D01*
X017324Y013914D01*
X017412Y013958D01*
X017502Y013998D01*
X017593Y014033D01*
X017686Y014064D01*
X017781Y014090D01*
X017877Y014112D01*
X017974Y014128D01*
X018071Y014140D01*
X018169Y014148D01*
X018267Y014150D01*
X018365Y014148D01*
X018463Y014140D01*
X018560Y014128D01*
X018657Y014112D01*
X018753Y014090D01*
X018848Y014064D01*
X018941Y014033D01*
X019032Y013998D01*
X019122Y013958D01*
X019210Y013914D01*
X019295Y013865D01*
X019378Y013813D01*
X019458Y013756D01*
X019536Y013696D01*
X019610Y013632D01*
X019681Y013564D01*
X019749Y013493D01*
X019813Y013419D01*
X019873Y013341D01*
X019930Y013261D01*
X019982Y013178D01*
X020031Y013093D01*
X020075Y013005D01*
X020115Y012915D01*
X020150Y012824D01*
X020181Y012731D01*
X020207Y012636D01*
X020229Y012540D01*
X020245Y012443D01*
X020257Y012346D01*
X020265Y012248D01*
X020267Y012150D01*
X020265Y012052D01*
X020257Y011954D01*
X020245Y011857D01*
X020229Y011760D01*
X020207Y011664D01*
X020181Y011569D01*
X020150Y011476D01*
X020115Y011385D01*
X020075Y011295D01*
X020031Y011207D01*
X019982Y011122D01*
X019930Y011039D01*
X019873Y010959D01*
X019813Y010881D01*
X019749Y010807D01*
X019681Y010736D01*
X019610Y010668D01*
X019536Y010604D01*
X019458Y010544D01*
X019378Y010487D01*
X019295Y010435D01*
X019210Y010386D01*
X019122Y010342D01*
X019032Y010302D01*
X018941Y010267D01*
X018848Y010236D01*
X018753Y010210D01*
X018657Y010188D01*
X018560Y010172D01*
X018463Y010160D01*
X018365Y010152D01*
X018267Y010150D01*
X018169Y010152D01*
X018071Y010160D01*
X017974Y010172D01*
X017877Y010188D01*
X017781Y010210D01*
X017686Y010236D01*
X017593Y010267D01*
X017502Y010302D01*
X017412Y010342D01*
X017324Y010386D01*
X017239Y010435D01*
X017156Y010487D01*
X017076Y010544D01*
X016998Y010604D01*
X016924Y010668D01*
X016853Y010736D01*
X016785Y010807D01*
X016721Y010881D01*
X016661Y010959D01*
X016604Y011039D01*
X016552Y011122D01*
X016503Y011207D01*
X016459Y011295D01*
X016419Y011385D01*
X016384Y011476D01*
X016353Y011569D01*
X016327Y011664D01*
X016305Y011760D01*
X016289Y011857D01*
X016277Y011954D01*
X016269Y012052D01*
X016267Y012150D01*
X009967Y012150D02*
X009969Y012248D01*
X009977Y012346D01*
X009989Y012443D01*
X010005Y012540D01*
X010027Y012636D01*
X010053Y012731D01*
X010084Y012824D01*
X010119Y012915D01*
X010159Y013005D01*
X010203Y013093D01*
X010252Y013178D01*
X010304Y013261D01*
X010361Y013341D01*
X010421Y013419D01*
X010485Y013493D01*
X010553Y013564D01*
X010624Y013632D01*
X010698Y013696D01*
X010776Y013756D01*
X010856Y013813D01*
X010939Y013865D01*
X011024Y013914D01*
X011112Y013958D01*
X011202Y013998D01*
X011293Y014033D01*
X011386Y014064D01*
X011481Y014090D01*
X011577Y014112D01*
X011674Y014128D01*
X011771Y014140D01*
X011869Y014148D01*
X011967Y014150D01*
X012065Y014148D01*
X012163Y014140D01*
X012260Y014128D01*
X012357Y014112D01*
X012453Y014090D01*
X012548Y014064D01*
X012641Y014033D01*
X012732Y013998D01*
X012822Y013958D01*
X012910Y013914D01*
X012995Y013865D01*
X013078Y013813D01*
X013158Y013756D01*
X013236Y013696D01*
X013310Y013632D01*
X013381Y013564D01*
X013449Y013493D01*
X013513Y013419D01*
X013573Y013341D01*
X013630Y013261D01*
X013682Y013178D01*
X013731Y013093D01*
X013775Y013005D01*
X013815Y012915D01*
X013850Y012824D01*
X013881Y012731D01*
X013907Y012636D01*
X013929Y012540D01*
X013945Y012443D01*
X013957Y012346D01*
X013965Y012248D01*
X013967Y012150D01*
X013965Y012052D01*
X013957Y011954D01*
X013945Y011857D01*
X013929Y011760D01*
X013907Y011664D01*
X013881Y011569D01*
X013850Y011476D01*
X013815Y011385D01*
X013775Y011295D01*
X013731Y011207D01*
X013682Y011122D01*
X013630Y011039D01*
X013573Y010959D01*
X013513Y010881D01*
X013449Y010807D01*
X013381Y010736D01*
X013310Y010668D01*
X013236Y010604D01*
X013158Y010544D01*
X013078Y010487D01*
X012995Y010435D01*
X012910Y010386D01*
X012822Y010342D01*
X012732Y010302D01*
X012641Y010267D01*
X012548Y010236D01*
X012453Y010210D01*
X012357Y010188D01*
X012260Y010172D01*
X012163Y010160D01*
X012065Y010152D01*
X011967Y010150D01*
X011869Y010152D01*
X011771Y010160D01*
X011674Y010172D01*
X011577Y010188D01*
X011481Y010210D01*
X011386Y010236D01*
X011293Y010267D01*
X011202Y010302D01*
X011112Y010342D01*
X011024Y010386D01*
X010939Y010435D01*
X010856Y010487D01*
X010776Y010544D01*
X010698Y010604D01*
X010624Y010668D01*
X010553Y010736D01*
X010485Y010807D01*
X010421Y010881D01*
X010361Y010959D01*
X010304Y011039D01*
X010252Y011122D01*
X010203Y011207D01*
X010159Y011295D01*
X010119Y011385D01*
X010084Y011476D01*
X010053Y011569D01*
X010027Y011664D01*
X010005Y011760D01*
X009989Y011857D01*
X009977Y011954D01*
X009969Y012052D01*
X009967Y012150D01*
X015350Y007850D02*
X015500Y007850D01*
X015500Y007450D02*
X015300Y007450D01*
D14*
X015150Y007300D02*
X015000Y007300D01*
X015000Y008000D01*
X015000Y008050D01*
X012850Y008050D01*
X012833Y008048D01*
X012816Y008044D01*
X012800Y008037D01*
X012786Y008027D01*
X012773Y008014D01*
X012763Y008000D01*
X012756Y007984D01*
X012752Y007967D01*
X012750Y007950D01*
X012750Y007350D01*
X012752Y007333D01*
X012756Y007316D01*
X012763Y007300D01*
X012773Y007286D01*
X012786Y007273D01*
X012800Y007263D01*
X012816Y007256D01*
X012833Y007252D01*
X012850Y007250D01*
X015000Y007250D01*
X015000Y007300D01*
X015150Y007300D02*
X015150Y008000D01*
X015000Y008000D01*
X014350Y007650D02*
X014150Y007650D01*
X014150Y007850D01*
X014000Y007850D02*
X013850Y007850D01*
X013850Y007450D01*
X014000Y007450D01*
X014000Y007850D01*
X014150Y007650D02*
X014150Y007450D01*
X013700Y007450D02*
X013700Y007650D01*
X013700Y007850D01*
X013700Y007650D02*
X013500Y007650D01*
X016150Y006650D02*
X016900Y006650D01*
X016902Y006611D01*
X016908Y006572D01*
X016917Y006534D01*
X016930Y006497D01*
X016947Y006461D01*
X016967Y006428D01*
X016991Y006396D01*
X017017Y006367D01*
X017046Y006341D01*
X017078Y006317D01*
X017111Y006297D01*
X017147Y006280D01*
X017184Y006267D01*
X017222Y006258D01*
X017261Y006252D01*
X017300Y006250D01*
X017339Y006252D01*
X017378Y006258D01*
X017416Y006267D01*
X017453Y006280D01*
X017489Y006297D01*
X017522Y006317D01*
X017554Y006341D01*
X017583Y006367D01*
X017609Y006396D01*
X017633Y006428D01*
X017653Y006461D01*
X017670Y006497D01*
X017683Y006534D01*
X017692Y006572D01*
X017698Y006611D01*
X017700Y006650D01*
X018450Y006650D01*
X018450Y002650D01*
X016150Y002650D01*
X016150Y006650D01*
X020250Y005750D02*
X020250Y003550D01*
X034850Y003550D01*
X034850Y004400D01*
X034820Y004402D01*
X034790Y004407D01*
X034761Y004416D01*
X034734Y004429D01*
X034708Y004444D01*
X034684Y004463D01*
X034663Y004484D01*
X034644Y004508D01*
X034629Y004534D01*
X034616Y004561D01*
X034607Y004590D01*
X034602Y004620D01*
X034600Y004650D01*
X034602Y004680D01*
X034607Y004710D01*
X034616Y004739D01*
X034629Y004766D01*
X034644Y004792D01*
X034663Y004816D01*
X034684Y004837D01*
X034708Y004856D01*
X034734Y004871D01*
X034761Y004884D01*
X034790Y004893D01*
X034820Y004898D01*
X034850Y004900D01*
X034850Y005750D01*
X020250Y005750D01*
X024200Y007000D02*
X026900Y007000D01*
X026959Y007002D01*
X027017Y007008D01*
X027076Y007017D01*
X027133Y007031D01*
X027189Y007048D01*
X027244Y007069D01*
X027298Y007093D01*
X027350Y007121D01*
X027400Y007152D01*
X027448Y007186D01*
X027493Y007223D01*
X027536Y007264D01*
X027577Y007307D01*
X027614Y007352D01*
X027648Y007400D01*
X027679Y007450D01*
X027707Y007502D01*
X027731Y007556D01*
X027752Y007611D01*
X027769Y007667D01*
X027783Y007724D01*
X027792Y007783D01*
X027798Y007841D01*
X027800Y007900D01*
X027798Y007959D01*
X027792Y008017D01*
X027783Y008076D01*
X027769Y008133D01*
X027752Y008189D01*
X027731Y008244D01*
X027707Y008298D01*
X027679Y008350D01*
X027648Y008400D01*
X027614Y008448D01*
X027577Y008493D01*
X027536Y008536D01*
X027493Y008577D01*
X027448Y008614D01*
X027400Y008648D01*
X027350Y008679D01*
X027298Y008707D01*
X027244Y008731D01*
X027189Y008752D01*
X027133Y008769D01*
X027076Y008783D01*
X027017Y008792D01*
X026959Y008798D01*
X026900Y008800D01*
X024200Y008800D01*
X024141Y008798D01*
X024083Y008792D01*
X024024Y008783D01*
X023967Y008769D01*
X023911Y008752D01*
X023856Y008731D01*
X023802Y008707D01*
X023750Y008679D01*
X023700Y008648D01*
X023652Y008614D01*
X023607Y008577D01*
X023564Y008536D01*
X023523Y008493D01*
X023486Y008448D01*
X023452Y008400D01*
X023421Y008350D01*
X023393Y008298D01*
X023369Y008244D01*
X023348Y008189D01*
X023331Y008133D01*
X023317Y008076D01*
X023308Y008017D01*
X023302Y007959D01*
X023300Y007900D01*
X023302Y007841D01*
X023308Y007783D01*
X023317Y007724D01*
X023331Y007667D01*
X023348Y007611D01*
X023369Y007556D01*
X023393Y007502D01*
X023421Y007450D01*
X023452Y007400D01*
X023486Y007352D01*
X023523Y007307D01*
X023564Y007264D01*
X023607Y007223D01*
X023652Y007186D01*
X023700Y007152D01*
X023750Y007121D01*
X023802Y007093D01*
X023856Y007069D01*
X023911Y007048D01*
X023967Y007031D01*
X024024Y007017D01*
X024083Y007008D01*
X024141Y007002D01*
X024200Y007000D01*
X025141Y012150D02*
X025143Y012213D01*
X025149Y012275D01*
X025159Y012337D01*
X025172Y012399D01*
X025190Y012459D01*
X025211Y012518D01*
X025236Y012576D01*
X025265Y012632D01*
X025297Y012686D01*
X025332Y012738D01*
X025370Y012787D01*
X025412Y012835D01*
X025456Y012879D01*
X025504Y012921D01*
X025553Y012959D01*
X025605Y012994D01*
X025659Y013026D01*
X025715Y013055D01*
X025773Y013080D01*
X025832Y013101D01*
X025892Y013119D01*
X025954Y013132D01*
X026016Y013142D01*
X026078Y013148D01*
X026141Y013150D01*
X026204Y013148D01*
X026266Y013142D01*
X026328Y013132D01*
X026390Y013119D01*
X026450Y013101D01*
X026509Y013080D01*
X026567Y013055D01*
X026623Y013026D01*
X026677Y012994D01*
X026729Y012959D01*
X026778Y012921D01*
X026826Y012879D01*
X026870Y012835D01*
X026912Y012787D01*
X026950Y012738D01*
X026985Y012686D01*
X027017Y012632D01*
X027046Y012576D01*
X027071Y012518D01*
X027092Y012459D01*
X027110Y012399D01*
X027123Y012337D01*
X027133Y012275D01*
X027139Y012213D01*
X027141Y012150D01*
X027139Y012087D01*
X027133Y012025D01*
X027123Y011963D01*
X027110Y011901D01*
X027092Y011841D01*
X027071Y011782D01*
X027046Y011724D01*
X027017Y011668D01*
X026985Y011614D01*
X026950Y011562D01*
X026912Y011513D01*
X026870Y011465D01*
X026826Y011421D01*
X026778Y011379D01*
X026729Y011341D01*
X026677Y011306D01*
X026623Y011274D01*
X026567Y011245D01*
X026509Y011220D01*
X026450Y011199D01*
X026390Y011181D01*
X026328Y011168D01*
X026266Y011158D01*
X026204Y011152D01*
X026141Y011150D01*
X026078Y011152D01*
X026016Y011158D01*
X025954Y011168D01*
X025892Y011181D01*
X025832Y011199D01*
X025773Y011220D01*
X025715Y011245D01*
X025659Y011274D01*
X025605Y011306D01*
X025553Y011341D01*
X025504Y011379D01*
X025456Y011421D01*
X025412Y011465D01*
X025370Y011513D01*
X025332Y011562D01*
X025297Y011614D01*
X025265Y011668D01*
X025236Y011724D01*
X025211Y011782D01*
X025190Y011841D01*
X025172Y011901D01*
X025159Y011963D01*
X025149Y012025D01*
X025143Y012087D01*
X025141Y012150D01*
X017267Y012150D02*
X017269Y012213D01*
X017275Y012275D01*
X017285Y012337D01*
X017298Y012399D01*
X017316Y012459D01*
X017337Y012518D01*
X017362Y012576D01*
X017391Y012632D01*
X017423Y012686D01*
X017458Y012738D01*
X017496Y012787D01*
X017538Y012835D01*
X017582Y012879D01*
X017630Y012921D01*
X017679Y012959D01*
X017731Y012994D01*
X017785Y013026D01*
X017841Y013055D01*
X017899Y013080D01*
X017958Y013101D01*
X018018Y013119D01*
X018080Y013132D01*
X018142Y013142D01*
X018204Y013148D01*
X018267Y013150D01*
X018330Y013148D01*
X018392Y013142D01*
X018454Y013132D01*
X018516Y013119D01*
X018576Y013101D01*
X018635Y013080D01*
X018693Y013055D01*
X018749Y013026D01*
X018803Y012994D01*
X018855Y012959D01*
X018904Y012921D01*
X018952Y012879D01*
X018996Y012835D01*
X019038Y012787D01*
X019076Y012738D01*
X019111Y012686D01*
X019143Y012632D01*
X019172Y012576D01*
X019197Y012518D01*
X019218Y012459D01*
X019236Y012399D01*
X019249Y012337D01*
X019259Y012275D01*
X019265Y012213D01*
X019267Y012150D01*
X019265Y012087D01*
X019259Y012025D01*
X019249Y011963D01*
X019236Y011901D01*
X019218Y011841D01*
X019197Y011782D01*
X019172Y011724D01*
X019143Y011668D01*
X019111Y011614D01*
X019076Y011562D01*
X019038Y011513D01*
X018996Y011465D01*
X018952Y011421D01*
X018904Y011379D01*
X018855Y011341D01*
X018803Y011306D01*
X018749Y011274D01*
X018693Y011245D01*
X018635Y011220D01*
X018576Y011199D01*
X018516Y011181D01*
X018454Y011168D01*
X018392Y011158D01*
X018330Y011152D01*
X018267Y011150D01*
X018204Y011152D01*
X018142Y011158D01*
X018080Y011168D01*
X018018Y011181D01*
X017958Y011199D01*
X017899Y011220D01*
X017841Y011245D01*
X017785Y011274D01*
X017731Y011306D01*
X017679Y011341D01*
X017630Y011379D01*
X017582Y011421D01*
X017538Y011465D01*
X017496Y011513D01*
X017458Y011562D01*
X017423Y011614D01*
X017391Y011668D01*
X017362Y011724D01*
X017337Y011782D01*
X017316Y011841D01*
X017298Y011901D01*
X017285Y011963D01*
X017275Y012025D01*
X017269Y012087D01*
X017267Y012150D01*
X010967Y012150D02*
X010969Y012213D01*
X010975Y012275D01*
X010985Y012337D01*
X010998Y012399D01*
X011016Y012459D01*
X011037Y012518D01*
X011062Y012576D01*
X011091Y012632D01*
X011123Y012686D01*
X011158Y012738D01*
X011196Y012787D01*
X011238Y012835D01*
X011282Y012879D01*
X011330Y012921D01*
X011379Y012959D01*
X011431Y012994D01*
X011485Y013026D01*
X011541Y013055D01*
X011599Y013080D01*
X011658Y013101D01*
X011718Y013119D01*
X011780Y013132D01*
X011842Y013142D01*
X011904Y013148D01*
X011967Y013150D01*
X012030Y013148D01*
X012092Y013142D01*
X012154Y013132D01*
X012216Y013119D01*
X012276Y013101D01*
X012335Y013080D01*
X012393Y013055D01*
X012449Y013026D01*
X012503Y012994D01*
X012555Y012959D01*
X012604Y012921D01*
X012652Y012879D01*
X012696Y012835D01*
X012738Y012787D01*
X012776Y012738D01*
X012811Y012686D01*
X012843Y012632D01*
X012872Y012576D01*
X012897Y012518D01*
X012918Y012459D01*
X012936Y012399D01*
X012949Y012337D01*
X012959Y012275D01*
X012965Y012213D01*
X012967Y012150D01*
X012965Y012087D01*
X012959Y012025D01*
X012949Y011963D01*
X012936Y011901D01*
X012918Y011841D01*
X012897Y011782D01*
X012872Y011724D01*
X012843Y011668D01*
X012811Y011614D01*
X012776Y011562D01*
X012738Y011513D01*
X012696Y011465D01*
X012652Y011421D01*
X012604Y011379D01*
X012555Y011341D01*
X012503Y011306D01*
X012449Y011274D01*
X012393Y011245D01*
X012335Y011220D01*
X012276Y011199D01*
X012216Y011181D01*
X012154Y011168D01*
X012092Y011158D01*
X012030Y011152D01*
X011967Y011150D01*
X011904Y011152D01*
X011842Y011158D01*
X011780Y011168D01*
X011718Y011181D01*
X011658Y011199D01*
X011599Y011220D01*
X011541Y011245D01*
X011485Y011274D01*
X011431Y011306D01*
X011379Y011341D01*
X011330Y011379D01*
X011282Y011421D01*
X011238Y011465D01*
X011196Y011513D01*
X011158Y011562D01*
X011123Y011614D01*
X011091Y011668D01*
X011062Y011724D01*
X011037Y011782D01*
X011016Y011841D01*
X010998Y011901D01*
X010985Y011963D01*
X010975Y012025D01*
X010969Y012087D01*
X010967Y012150D01*
X031440Y012150D02*
X031442Y012213D01*
X031448Y012275D01*
X031458Y012337D01*
X031471Y012399D01*
X031489Y012459D01*
X031510Y012518D01*
X031535Y012576D01*
X031564Y012632D01*
X031596Y012686D01*
X031631Y012738D01*
X031669Y012787D01*
X031711Y012835D01*
X031755Y012879D01*
X031803Y012921D01*
X031852Y012959D01*
X031904Y012994D01*
X031958Y013026D01*
X032014Y013055D01*
X032072Y013080D01*
X032131Y013101D01*
X032191Y013119D01*
X032253Y013132D01*
X032315Y013142D01*
X032377Y013148D01*
X032440Y013150D01*
X032503Y013148D01*
X032565Y013142D01*
X032627Y013132D01*
X032689Y013119D01*
X032749Y013101D01*
X032808Y013080D01*
X032866Y013055D01*
X032922Y013026D01*
X032976Y012994D01*
X033028Y012959D01*
X033077Y012921D01*
X033125Y012879D01*
X033169Y012835D01*
X033211Y012787D01*
X033249Y012738D01*
X033284Y012686D01*
X033316Y012632D01*
X033345Y012576D01*
X033370Y012518D01*
X033391Y012459D01*
X033409Y012399D01*
X033422Y012337D01*
X033432Y012275D01*
X033438Y012213D01*
X033440Y012150D01*
X033438Y012087D01*
X033432Y012025D01*
X033422Y011963D01*
X033409Y011901D01*
X033391Y011841D01*
X033370Y011782D01*
X033345Y011724D01*
X033316Y011668D01*
X033284Y011614D01*
X033249Y011562D01*
X033211Y011513D01*
X033169Y011465D01*
X033125Y011421D01*
X033077Y011379D01*
X033028Y011341D01*
X032976Y011306D01*
X032922Y011274D01*
X032866Y011245D01*
X032808Y011220D01*
X032749Y011199D01*
X032689Y011181D01*
X032627Y011168D01*
X032565Y011158D01*
X032503Y011152D01*
X032440Y011150D01*
X032377Y011152D01*
X032315Y011158D01*
X032253Y011168D01*
X032191Y011181D01*
X032131Y011199D01*
X032072Y011220D01*
X032014Y011245D01*
X031958Y011274D01*
X031904Y011306D01*
X031852Y011341D01*
X031803Y011379D01*
X031755Y011421D01*
X031711Y011465D01*
X031669Y011513D01*
X031631Y011562D01*
X031596Y011614D01*
X031564Y011668D01*
X031535Y011724D01*
X031510Y011782D01*
X031489Y011841D01*
X031471Y011901D01*
X031458Y011963D01*
X031448Y012025D01*
X031442Y012087D01*
X031440Y012150D01*
D15*
X026900Y008600D02*
X024200Y008600D01*
X024149Y008598D01*
X024098Y008593D01*
X024048Y008583D01*
X023998Y008570D01*
X023950Y008554D01*
X023903Y008534D01*
X023857Y008510D01*
X023814Y008484D01*
X023772Y008454D01*
X023733Y008421D01*
X023696Y008386D01*
X023662Y008348D01*
X023631Y008307D01*
X023602Y008265D01*
X023577Y008220D01*
X023556Y008174D01*
X023537Y008126D01*
X023523Y008077D01*
X023512Y008027D01*
X023504Y007977D01*
X023500Y007926D01*
X023500Y007874D01*
X023504Y007823D01*
X023512Y007773D01*
X023523Y007723D01*
X023537Y007674D01*
X023556Y007626D01*
X023577Y007580D01*
X023602Y007535D01*
X023631Y007493D01*
X023662Y007452D01*
X023696Y007414D01*
X023733Y007379D01*
X023772Y007346D01*
X023814Y007316D01*
X023857Y007290D01*
X023903Y007266D01*
X023950Y007246D01*
X023998Y007230D01*
X024048Y007217D01*
X024098Y007207D01*
X024149Y007202D01*
X024200Y007200D01*
X026900Y007200D01*
X026951Y007202D01*
X027002Y007207D01*
X027052Y007217D01*
X027102Y007230D01*
X027150Y007246D01*
X027197Y007266D01*
X027243Y007290D01*
X027286Y007316D01*
X027328Y007346D01*
X027367Y007379D01*
X027404Y007414D01*
X027438Y007452D01*
X027469Y007493D01*
X027498Y007535D01*
X027523Y007580D01*
X027544Y007626D01*
X027563Y007674D01*
X027577Y007723D01*
X027588Y007773D01*
X027596Y007823D01*
X027600Y007874D01*
X027600Y007926D01*
X027596Y007977D01*
X027588Y008027D01*
X027577Y008077D01*
X027563Y008126D01*
X027544Y008174D01*
X027523Y008220D01*
X027498Y008265D01*
X027469Y008307D01*
X027438Y008348D01*
X027404Y008386D01*
X027367Y008421D01*
X027328Y008454D01*
X027286Y008484D01*
X027243Y008510D01*
X027197Y008534D01*
X027150Y008554D01*
X027102Y008570D01*
X027052Y008583D01*
X027002Y008593D01*
X026951Y008598D01*
X026900Y008600D01*
D16*
X036981Y006238D02*
X037078Y006335D01*
X037078Y006045D01*
X036981Y006045D02*
X037175Y006045D01*
X037276Y006093D02*
X037469Y006287D01*
X037469Y006093D01*
X037421Y006045D01*
X037324Y006045D01*
X037276Y006093D01*
X037276Y006287D01*
X037324Y006335D01*
X037421Y006335D01*
X037469Y006287D01*
X037570Y006335D02*
X037570Y006045D01*
X037570Y006142D02*
X037764Y006335D01*
X037619Y006190D02*
X037764Y006045D01*
X039496Y012124D02*
X039447Y012173D01*
X039447Y012269D01*
X039496Y012318D01*
X039544Y012318D01*
X039738Y012124D01*
X039738Y012318D01*
X039689Y012419D02*
X039496Y012613D01*
X039689Y012613D01*
X039738Y012564D01*
X039738Y012467D01*
X039689Y012419D01*
X039496Y012419D01*
X039447Y012467D01*
X039447Y012564D01*
X039496Y012613D01*
X039496Y012714D02*
X039447Y012762D01*
X039447Y012859D01*
X039496Y012907D01*
X039689Y012714D01*
X039738Y012762D01*
X039738Y012859D01*
X039689Y012907D01*
X039496Y012907D01*
X039496Y012714D02*
X039689Y012714D01*
X038905Y016081D02*
X038905Y016275D01*
X038905Y016178D02*
X038615Y016178D01*
X038712Y016081D01*
X038663Y016376D02*
X038615Y016424D01*
X038615Y016521D01*
X038663Y016569D01*
X038857Y016376D01*
X038905Y016424D01*
X038905Y016521D01*
X038857Y016569D01*
X038663Y016569D01*
X038615Y016670D02*
X038905Y016670D01*
X038808Y016670D02*
X038615Y016864D01*
X038760Y016719D02*
X038905Y016864D01*
X038857Y016376D02*
X038663Y016376D01*
X035655Y016424D02*
X035655Y016521D01*
X035607Y016569D01*
X035558Y016569D01*
X035510Y016521D01*
X035510Y016376D01*
X035607Y016376D01*
X035655Y016424D01*
X035510Y016376D02*
X035413Y016472D01*
X035365Y016569D01*
X035413Y016670D02*
X035365Y016719D01*
X035365Y016815D01*
X035413Y016864D01*
X035607Y016670D01*
X035655Y016719D01*
X035655Y016815D01*
X035607Y016864D01*
X035413Y016864D01*
X035413Y016670D02*
X035607Y016670D01*
X035607Y016275D02*
X035655Y016226D01*
X035655Y016129D01*
X035607Y016081D01*
X035510Y016081D02*
X035462Y016178D01*
X035462Y016226D01*
X035510Y016275D01*
X035607Y016275D01*
X035510Y016081D02*
X035365Y016081D01*
X035365Y016275D01*
X035493Y019365D02*
X035542Y019365D01*
X035590Y019413D01*
X035590Y019510D01*
X035638Y019558D01*
X035687Y019558D01*
X035735Y019510D01*
X035735Y019413D01*
X035687Y019365D01*
X035638Y019365D01*
X035590Y019413D01*
X035590Y019510D02*
X035542Y019558D01*
X035493Y019558D01*
X035445Y019510D01*
X035445Y019413D01*
X035493Y019365D01*
X035493Y019660D02*
X035445Y019708D01*
X035445Y019805D01*
X035493Y019853D01*
X035542Y019853D01*
X035735Y019660D01*
X035735Y019853D01*
X035687Y019954D02*
X035493Y020148D01*
X035687Y020148D01*
X035735Y020099D01*
X035735Y020003D01*
X035687Y019954D01*
X035493Y019954D01*
X035445Y020003D01*
X035445Y020099D01*
X035493Y020148D01*
X029485Y020099D02*
X029485Y020003D01*
X029437Y019954D01*
X029243Y020148D01*
X029437Y020148D01*
X029485Y020099D01*
X029437Y019954D02*
X029243Y019954D01*
X029195Y020003D01*
X029195Y020099D01*
X029243Y020148D01*
X029243Y019853D02*
X029195Y019805D01*
X029195Y019708D01*
X029243Y019660D01*
X029243Y019558D02*
X029292Y019558D01*
X029340Y019510D01*
X029340Y019413D01*
X029292Y019365D01*
X029243Y019365D01*
X029195Y019413D01*
X029195Y019510D01*
X029243Y019558D01*
X029340Y019510D02*
X029388Y019558D01*
X029437Y019558D01*
X029485Y019510D01*
X029485Y019413D01*
X029437Y019365D01*
X029388Y019365D01*
X029340Y019413D01*
X029485Y019660D02*
X029292Y019853D01*
X029243Y019853D01*
X029485Y019853D02*
X029485Y019660D01*
X029357Y016864D02*
X029405Y016815D01*
X029405Y016719D01*
X029357Y016670D01*
X029163Y016864D01*
X029357Y016864D01*
X029357Y016670D02*
X029163Y016670D01*
X029115Y016719D01*
X029115Y016815D01*
X029163Y016864D01*
X029115Y016569D02*
X029163Y016472D01*
X029260Y016376D01*
X029260Y016521D01*
X029308Y016569D01*
X029357Y016569D01*
X029405Y016521D01*
X029405Y016424D01*
X029357Y016376D01*
X029260Y016376D01*
X029260Y016275D02*
X029357Y016275D01*
X029405Y016226D01*
X029405Y016129D01*
X029357Y016081D01*
X029260Y016081D02*
X029212Y016178D01*
X029212Y016226D01*
X029260Y016275D01*
X029115Y016275D02*
X029115Y016081D01*
X029260Y016081D01*
X021405Y016129D02*
X021357Y016081D01*
X021405Y016129D02*
X021405Y016226D01*
X021357Y016275D01*
X021260Y016275D01*
X021212Y016226D01*
X021212Y016178D01*
X021260Y016081D01*
X021115Y016081D01*
X021115Y016275D01*
X021260Y016376D02*
X021260Y016521D01*
X021308Y016569D01*
X021357Y016569D01*
X021405Y016521D01*
X021405Y016424D01*
X021357Y016376D01*
X021260Y016376D01*
X021163Y016472D01*
X021115Y016569D01*
X021163Y016670D02*
X021115Y016719D01*
X021115Y016815D01*
X021163Y016864D01*
X021357Y016670D01*
X021405Y016719D01*
X021405Y016815D01*
X021357Y016864D01*
X021163Y016864D01*
X021163Y016670D02*
X021357Y016670D01*
X021388Y019365D02*
X021340Y019413D01*
X021340Y019510D01*
X021388Y019558D01*
X021437Y019558D01*
X021485Y019510D01*
X021485Y019413D01*
X021437Y019365D01*
X021388Y019365D01*
X021340Y019413D02*
X021292Y019365D01*
X021243Y019365D01*
X021195Y019413D01*
X021195Y019510D01*
X021243Y019558D01*
X021292Y019558D01*
X021340Y019510D01*
X021243Y019660D02*
X021195Y019708D01*
X021195Y019805D01*
X021243Y019853D01*
X021292Y019853D01*
X021485Y019660D01*
X021485Y019853D01*
X021437Y019954D02*
X021243Y020148D01*
X021437Y020148D01*
X021485Y020099D01*
X021485Y020003D01*
X021437Y019954D01*
X021243Y019954D01*
X021195Y020003D01*
X021195Y020099D01*
X021243Y020148D01*
X015360Y020099D02*
X015360Y020003D01*
X015312Y019954D01*
X015118Y020148D01*
X015312Y020148D01*
X015360Y020099D01*
X015312Y019954D02*
X015118Y019954D01*
X015070Y020003D01*
X015070Y020099D01*
X015118Y020148D01*
X015118Y019853D02*
X015070Y019805D01*
X015070Y019708D01*
X015118Y019660D01*
X015118Y019558D02*
X015167Y019558D01*
X015215Y019510D01*
X015215Y019413D01*
X015167Y019365D01*
X015118Y019365D01*
X015070Y019413D01*
X015070Y019510D01*
X015118Y019558D01*
X015215Y019510D02*
X015263Y019558D01*
X015312Y019558D01*
X015360Y019510D01*
X015360Y019413D01*
X015312Y019365D01*
X015263Y019365D01*
X015215Y019413D01*
X015360Y019660D02*
X015167Y019853D01*
X015118Y019853D01*
X015360Y019853D02*
X015360Y019660D01*
X015232Y016864D02*
X015280Y016815D01*
X015280Y016719D01*
X015232Y016670D01*
X015038Y016864D01*
X015232Y016864D01*
X015232Y016670D02*
X015038Y016670D01*
X014990Y016719D01*
X014990Y016815D01*
X015038Y016864D01*
X014990Y016569D02*
X015038Y016472D01*
X015135Y016376D01*
X015135Y016521D01*
X015183Y016569D01*
X015232Y016569D01*
X015280Y016521D01*
X015280Y016424D01*
X015232Y016376D01*
X015135Y016376D01*
X015135Y016275D02*
X015232Y016275D01*
X015280Y016226D01*
X015280Y016129D01*
X015232Y016081D01*
X015135Y016081D02*
X015087Y016178D01*
X015087Y016226D01*
X015135Y016275D01*
X014990Y016275D02*
X014990Y016081D01*
X015135Y016081D01*
X005066Y012099D02*
X005066Y012003D01*
X005017Y011954D01*
X004824Y012148D01*
X005017Y012148D01*
X005066Y012099D01*
X005017Y011954D02*
X004824Y011954D01*
X004775Y012003D01*
X004775Y012099D01*
X004824Y012148D01*
X004824Y011853D02*
X005017Y011660D01*
X005066Y011708D01*
X005066Y011805D01*
X005017Y011853D01*
X004824Y011853D01*
X004775Y011805D01*
X004775Y011708D01*
X004824Y011660D01*
X005017Y011660D01*
X005066Y011558D02*
X005066Y011365D01*
X004872Y011558D01*
X004824Y011558D01*
X004775Y011510D01*
X004775Y011413D01*
X004824Y011365D01*
X003397Y016965D02*
X003397Y017255D01*
X003591Y017255D01*
X003494Y017110D02*
X003397Y017110D01*
X003296Y017158D02*
X003296Y016965D01*
X003151Y016965D01*
X003102Y017013D01*
X003102Y017158D01*
X003001Y017207D02*
X002808Y017013D01*
X002856Y016965D01*
X002953Y016965D01*
X003001Y017013D01*
X003001Y017207D01*
X002953Y017255D01*
X002856Y017255D01*
X002808Y017207D01*
X002808Y017013D01*
X002707Y017013D02*
X002658Y016965D01*
X002562Y016965D01*
X002513Y017013D01*
X002707Y017207D01*
X002707Y017013D01*
X002513Y017013D02*
X002513Y017207D01*
X002562Y017255D01*
X002658Y017255D01*
X002707Y017207D01*
X002412Y016965D02*
X002219Y016965D01*
X002315Y016965D02*
X002315Y017255D01*
X002219Y017158D01*
D17*
X015285Y007850D03*
X015285Y007450D03*
D18*
X005708Y012150D02*
X005710Y012228D01*
X005716Y012305D01*
X005726Y012382D01*
X005739Y012459D01*
X005757Y012535D01*
X005778Y012610D01*
X005804Y012683D01*
X005832Y012755D01*
X005865Y012826D01*
X005901Y012895D01*
X005940Y012962D01*
X005983Y013027D01*
X006029Y013090D01*
X006078Y013150D01*
X006130Y013208D01*
X006185Y013263D01*
X006243Y013315D01*
X006303Y013364D01*
X006366Y013410D01*
X006431Y013453D01*
X006498Y013492D01*
X006567Y013528D01*
X006638Y013561D01*
X006710Y013589D01*
X006783Y013615D01*
X006858Y013636D01*
X006934Y013654D01*
X007011Y013667D01*
X007088Y013677D01*
X007165Y013683D01*
X007243Y013685D01*
X007321Y013683D01*
X007398Y013677D01*
X007475Y013667D01*
X007552Y013654D01*
X007628Y013636D01*
X007703Y013615D01*
X007776Y013589D01*
X007848Y013561D01*
X007919Y013528D01*
X007988Y013492D01*
X008055Y013453D01*
X008120Y013410D01*
X008183Y013364D01*
X008243Y013315D01*
X008301Y013263D01*
X008356Y013208D01*
X008408Y013150D01*
X008457Y013090D01*
X008503Y013027D01*
X008546Y012962D01*
X008585Y012895D01*
X008621Y012826D01*
X008654Y012755D01*
X008682Y012683D01*
X008708Y012610D01*
X008729Y012535D01*
X008747Y012459D01*
X008760Y012382D01*
X008770Y012305D01*
X008776Y012228D01*
X008778Y012150D01*
X008776Y012072D01*
X008770Y011995D01*
X008760Y011918D01*
X008747Y011841D01*
X008729Y011765D01*
X008708Y011690D01*
X008682Y011617D01*
X008654Y011545D01*
X008621Y011474D01*
X008585Y011405D01*
X008546Y011338D01*
X008503Y011273D01*
X008457Y011210D01*
X008408Y011150D01*
X008356Y011092D01*
X008301Y011037D01*
X008243Y010985D01*
X008183Y010936D01*
X008120Y010890D01*
X008055Y010847D01*
X007988Y010808D01*
X007919Y010772D01*
X007848Y010739D01*
X007776Y010711D01*
X007703Y010685D01*
X007628Y010664D01*
X007552Y010646D01*
X007475Y010633D01*
X007398Y010623D01*
X007321Y010617D01*
X007243Y010615D01*
X007165Y010617D01*
X007088Y010623D01*
X007011Y010633D01*
X006934Y010646D01*
X006858Y010664D01*
X006783Y010685D01*
X006710Y010711D01*
X006638Y010739D01*
X006567Y010772D01*
X006498Y010808D01*
X006431Y010847D01*
X006366Y010890D01*
X006303Y010936D01*
X006243Y010985D01*
X006185Y011037D01*
X006130Y011092D01*
X006078Y011150D01*
X006029Y011210D01*
X005983Y011273D01*
X005940Y011338D01*
X005901Y011405D01*
X005865Y011474D01*
X005832Y011545D01*
X005804Y011617D01*
X005778Y011690D01*
X005757Y011765D01*
X005739Y011841D01*
X005726Y011918D01*
X005716Y011995D01*
X005710Y012072D01*
X005708Y012150D01*
X006743Y013900D02*
X007743Y013900D01*
X036400Y015325D02*
X036400Y016975D01*
X036950Y017037D02*
X036950Y017195D01*
X036950Y016263D02*
X036950Y016037D01*
X036400Y016975D02*
X036448Y017010D01*
X036498Y017043D01*
X036550Y017074D01*
X036604Y017101D01*
X036659Y017125D01*
X036716Y017145D01*
X036773Y017163D01*
X036831Y017177D01*
X036890Y017188D01*
X036950Y017195D01*
X037012Y017199D01*
X037075Y017200D01*
X037137Y017196D01*
X037199Y017189D01*
X037260Y017179D01*
X037321Y017164D01*
X037381Y017146D01*
X037440Y017125D01*
X037497Y017100D01*
X037552Y017072D01*
X037606Y017041D01*
X037658Y017006D01*
X037708Y016968D01*
X037755Y016928D01*
X037800Y016884D01*
X037843Y016839D01*
X037882Y016790D01*
X037919Y016740D01*
X037952Y016687D01*
X037983Y016633D01*
X038010Y016576D01*
X038033Y016519D01*
X038053Y016460D01*
X038053Y015840D02*
X038033Y015780D01*
X038009Y015721D01*
X037981Y015664D01*
X037950Y015609D01*
X037915Y015555D01*
X037878Y015504D01*
X037837Y015455D01*
X037793Y015409D01*
X037747Y015365D01*
X037698Y015324D01*
X037647Y015286D01*
X037594Y015252D01*
X037538Y015220D01*
X037481Y015193D01*
X037422Y015168D01*
X037362Y015148D01*
X037301Y015130D01*
X037239Y015117D01*
X037176Y015108D01*
X037113Y015102D01*
X037049Y015100D01*
X036985Y015102D01*
X036922Y015108D01*
X036859Y015117D01*
X036797Y015131D01*
X036736Y015148D01*
X036676Y015169D01*
X036617Y015193D01*
X036560Y015221D01*
X036504Y015253D01*
X036451Y015288D01*
X036400Y015325D01*
X036950Y015263D02*
X036950Y015105D01*
X035629Y012150D02*
X035631Y012228D01*
X035637Y012305D01*
X035647Y012382D01*
X035660Y012459D01*
X035678Y012535D01*
X035699Y012610D01*
X035725Y012683D01*
X035753Y012755D01*
X035786Y012826D01*
X035822Y012895D01*
X035861Y012962D01*
X035904Y013027D01*
X035950Y013090D01*
X035999Y013150D01*
X036051Y013208D01*
X036106Y013263D01*
X036164Y013315D01*
X036224Y013364D01*
X036287Y013410D01*
X036352Y013453D01*
X036419Y013492D01*
X036488Y013528D01*
X036559Y013561D01*
X036631Y013589D01*
X036704Y013615D01*
X036779Y013636D01*
X036855Y013654D01*
X036932Y013667D01*
X037009Y013677D01*
X037086Y013683D01*
X037164Y013685D01*
X037242Y013683D01*
X037319Y013677D01*
X037396Y013667D01*
X037473Y013654D01*
X037549Y013636D01*
X037624Y013615D01*
X037697Y013589D01*
X037769Y013561D01*
X037840Y013528D01*
X037909Y013492D01*
X037976Y013453D01*
X038041Y013410D01*
X038104Y013364D01*
X038164Y013315D01*
X038222Y013263D01*
X038277Y013208D01*
X038329Y013150D01*
X038378Y013090D01*
X038424Y013027D01*
X038467Y012962D01*
X038506Y012895D01*
X038542Y012826D01*
X038575Y012755D01*
X038603Y012683D01*
X038629Y012610D01*
X038650Y012535D01*
X038668Y012459D01*
X038681Y012382D01*
X038691Y012305D01*
X038697Y012228D01*
X038699Y012150D01*
X038697Y012072D01*
X038691Y011995D01*
X038681Y011918D01*
X038668Y011841D01*
X038650Y011765D01*
X038629Y011690D01*
X038603Y011617D01*
X038575Y011545D01*
X038542Y011474D01*
X038506Y011405D01*
X038467Y011338D01*
X038424Y011273D01*
X038378Y011210D01*
X038329Y011150D01*
X038277Y011092D01*
X038222Y011037D01*
X038164Y010985D01*
X038104Y010936D01*
X038041Y010890D01*
X037976Y010847D01*
X037909Y010808D01*
X037840Y010772D01*
X037769Y010739D01*
X037697Y010711D01*
X037624Y010685D01*
X037549Y010664D01*
X037473Y010646D01*
X037396Y010633D01*
X037319Y010623D01*
X037242Y010617D01*
X037164Y010615D01*
X037086Y010617D01*
X037009Y010623D01*
X036932Y010633D01*
X036855Y010646D01*
X036779Y010664D01*
X036704Y010685D01*
X036631Y010711D01*
X036559Y010739D01*
X036488Y010772D01*
X036419Y010808D01*
X036352Y010847D01*
X036287Y010890D01*
X036224Y010936D01*
X036164Y010985D01*
X036106Y011037D01*
X036051Y011092D01*
X035999Y011150D01*
X035950Y011210D01*
X035904Y011273D01*
X035861Y011338D01*
X035822Y011405D01*
X035786Y011474D01*
X035753Y011545D01*
X035725Y011617D01*
X035699Y011690D01*
X035678Y011765D01*
X035660Y011841D01*
X035647Y011918D01*
X035637Y011995D01*
X035631Y012072D01*
X035629Y012150D01*
X036664Y010400D02*
X037664Y010400D01*
M02*
