G75*
G70*
%OFA0B0*%
%FSLAX24Y24*%
%IPPOS*%
%LPD*%
%AMOC8*
5,1,8,0,0,1.08239X$1,22.5*
%
%ADD10C,0.0000*%
%ADD11C,0.0555*%
%ADD12C,0.0560*%
%ADD13C,0.0712*%
%ADD14C,0.0480*%
%ADD15C,0.0516*%
%ADD16C,0.0640*%
%ADD17C,0.0594*%
%ADD18C,0.1580*%
%ADD19R,0.0516X0.0516*%
%ADD20OC8,0.0560*%
%ADD21C,0.0768*%
%ADD22C,0.0560*%
%ADD23C,0.0886*%
%ADD24C,0.0120*%
%ADD25C,0.0100*%
%ADD26C,0.0400*%
%ADD27C,0.0240*%
D10*
X000550Y000150D02*
X000550Y023969D01*
X043857Y023969D01*
X043857Y000150D01*
X000550Y000150D01*
X001475Y001725D02*
X001477Y001775D01*
X001483Y001825D01*
X001493Y001875D01*
X001506Y001923D01*
X001523Y001971D01*
X001544Y002017D01*
X001568Y002061D01*
X001596Y002103D01*
X001627Y002143D01*
X001661Y002180D01*
X001698Y002215D01*
X001737Y002246D01*
X001778Y002275D01*
X001822Y002300D01*
X001868Y002322D01*
X001915Y002340D01*
X001963Y002354D01*
X002012Y002365D01*
X002062Y002372D01*
X002112Y002375D01*
X002163Y002374D01*
X002213Y002369D01*
X002263Y002360D01*
X002311Y002348D01*
X002359Y002331D01*
X002405Y002311D01*
X002450Y002288D01*
X002493Y002261D01*
X002533Y002231D01*
X002571Y002198D01*
X002606Y002162D01*
X002639Y002123D01*
X002668Y002082D01*
X002694Y002039D01*
X002717Y001994D01*
X002736Y001947D01*
X002751Y001899D01*
X002763Y001850D01*
X002771Y001800D01*
X002775Y001750D01*
X002775Y001700D01*
X002771Y001650D01*
X002763Y001600D01*
X002751Y001551D01*
X002736Y001503D01*
X002717Y001456D01*
X002694Y001411D01*
X002668Y001368D01*
X002639Y001327D01*
X002606Y001288D01*
X002571Y001252D01*
X002533Y001219D01*
X002493Y001189D01*
X002450Y001162D01*
X002405Y001139D01*
X002359Y001119D01*
X002311Y001102D01*
X002263Y001090D01*
X002213Y001081D01*
X002163Y001076D01*
X002112Y001075D01*
X002062Y001078D01*
X002012Y001085D01*
X001963Y001096D01*
X001915Y001110D01*
X001868Y001128D01*
X001822Y001150D01*
X001778Y001175D01*
X001737Y001204D01*
X001698Y001235D01*
X001661Y001270D01*
X001627Y001307D01*
X001596Y001347D01*
X001568Y001389D01*
X001544Y001433D01*
X001523Y001479D01*
X001506Y001527D01*
X001493Y001575D01*
X001483Y001625D01*
X001477Y001675D01*
X001475Y001725D01*
X001475Y022394D02*
X001477Y022444D01*
X001483Y022494D01*
X001493Y022544D01*
X001506Y022592D01*
X001523Y022640D01*
X001544Y022686D01*
X001568Y022730D01*
X001596Y022772D01*
X001627Y022812D01*
X001661Y022849D01*
X001698Y022884D01*
X001737Y022915D01*
X001778Y022944D01*
X001822Y022969D01*
X001868Y022991D01*
X001915Y023009D01*
X001963Y023023D01*
X002012Y023034D01*
X002062Y023041D01*
X002112Y023044D01*
X002163Y023043D01*
X002213Y023038D01*
X002263Y023029D01*
X002311Y023017D01*
X002359Y023000D01*
X002405Y022980D01*
X002450Y022957D01*
X002493Y022930D01*
X002533Y022900D01*
X002571Y022867D01*
X002606Y022831D01*
X002639Y022792D01*
X002668Y022751D01*
X002694Y022708D01*
X002717Y022663D01*
X002736Y022616D01*
X002751Y022568D01*
X002763Y022519D01*
X002771Y022469D01*
X002775Y022419D01*
X002775Y022369D01*
X002771Y022319D01*
X002763Y022269D01*
X002751Y022220D01*
X002736Y022172D01*
X002717Y022125D01*
X002694Y022080D01*
X002668Y022037D01*
X002639Y021996D01*
X002606Y021957D01*
X002571Y021921D01*
X002533Y021888D01*
X002493Y021858D01*
X002450Y021831D01*
X002405Y021808D01*
X002359Y021788D01*
X002311Y021771D01*
X002263Y021759D01*
X002213Y021750D01*
X002163Y021745D01*
X002112Y021744D01*
X002062Y021747D01*
X002012Y021754D01*
X001963Y021765D01*
X001915Y021779D01*
X001868Y021797D01*
X001822Y021819D01*
X001778Y021844D01*
X001737Y021873D01*
X001698Y021904D01*
X001661Y021939D01*
X001627Y021976D01*
X001596Y022016D01*
X001568Y022058D01*
X001544Y022102D01*
X001523Y022148D01*
X001506Y022196D01*
X001493Y022244D01*
X001483Y022294D01*
X001477Y022344D01*
X001475Y022394D01*
X041632Y022394D02*
X041634Y022444D01*
X041640Y022494D01*
X041650Y022544D01*
X041663Y022592D01*
X041680Y022640D01*
X041701Y022686D01*
X041725Y022730D01*
X041753Y022772D01*
X041784Y022812D01*
X041818Y022849D01*
X041855Y022884D01*
X041894Y022915D01*
X041935Y022944D01*
X041979Y022969D01*
X042025Y022991D01*
X042072Y023009D01*
X042120Y023023D01*
X042169Y023034D01*
X042219Y023041D01*
X042269Y023044D01*
X042320Y023043D01*
X042370Y023038D01*
X042420Y023029D01*
X042468Y023017D01*
X042516Y023000D01*
X042562Y022980D01*
X042607Y022957D01*
X042650Y022930D01*
X042690Y022900D01*
X042728Y022867D01*
X042763Y022831D01*
X042796Y022792D01*
X042825Y022751D01*
X042851Y022708D01*
X042874Y022663D01*
X042893Y022616D01*
X042908Y022568D01*
X042920Y022519D01*
X042928Y022469D01*
X042932Y022419D01*
X042932Y022369D01*
X042928Y022319D01*
X042920Y022269D01*
X042908Y022220D01*
X042893Y022172D01*
X042874Y022125D01*
X042851Y022080D01*
X042825Y022037D01*
X042796Y021996D01*
X042763Y021957D01*
X042728Y021921D01*
X042690Y021888D01*
X042650Y021858D01*
X042607Y021831D01*
X042562Y021808D01*
X042516Y021788D01*
X042468Y021771D01*
X042420Y021759D01*
X042370Y021750D01*
X042320Y021745D01*
X042269Y021744D01*
X042219Y021747D01*
X042169Y021754D01*
X042120Y021765D01*
X042072Y021779D01*
X042025Y021797D01*
X041979Y021819D01*
X041935Y021844D01*
X041894Y021873D01*
X041855Y021904D01*
X041818Y021939D01*
X041784Y021976D01*
X041753Y022016D01*
X041725Y022058D01*
X041701Y022102D01*
X041680Y022148D01*
X041663Y022196D01*
X041650Y022244D01*
X041640Y022294D01*
X041634Y022344D01*
X041632Y022394D01*
X041632Y001725D02*
X041634Y001775D01*
X041640Y001825D01*
X041650Y001875D01*
X041663Y001923D01*
X041680Y001971D01*
X041701Y002017D01*
X041725Y002061D01*
X041753Y002103D01*
X041784Y002143D01*
X041818Y002180D01*
X041855Y002215D01*
X041894Y002246D01*
X041935Y002275D01*
X041979Y002300D01*
X042025Y002322D01*
X042072Y002340D01*
X042120Y002354D01*
X042169Y002365D01*
X042219Y002372D01*
X042269Y002375D01*
X042320Y002374D01*
X042370Y002369D01*
X042420Y002360D01*
X042468Y002348D01*
X042516Y002331D01*
X042562Y002311D01*
X042607Y002288D01*
X042650Y002261D01*
X042690Y002231D01*
X042728Y002198D01*
X042763Y002162D01*
X042796Y002123D01*
X042825Y002082D01*
X042851Y002039D01*
X042874Y001994D01*
X042893Y001947D01*
X042908Y001899D01*
X042920Y001850D01*
X042928Y001800D01*
X042932Y001750D01*
X042932Y001700D01*
X042928Y001650D01*
X042920Y001600D01*
X042908Y001551D01*
X042893Y001503D01*
X042874Y001456D01*
X042851Y001411D01*
X042825Y001368D01*
X042796Y001327D01*
X042763Y001288D01*
X042728Y001252D01*
X042690Y001219D01*
X042650Y001189D01*
X042607Y001162D01*
X042562Y001139D01*
X042516Y001119D01*
X042468Y001102D01*
X042420Y001090D01*
X042370Y001081D01*
X042320Y001076D01*
X042269Y001075D01*
X042219Y001078D01*
X042169Y001085D01*
X042120Y001096D01*
X042072Y001110D01*
X042025Y001128D01*
X041979Y001150D01*
X041935Y001175D01*
X041894Y001204D01*
X041855Y001235D01*
X041818Y001270D01*
X041784Y001307D01*
X041753Y001347D01*
X041725Y001389D01*
X041701Y001433D01*
X041680Y001479D01*
X041663Y001527D01*
X041650Y001575D01*
X041640Y001625D01*
X041634Y001675D01*
X041632Y001725D01*
D11*
X032440Y009650D03*
X030940Y010150D03*
X030065Y011400D03*
X028516Y011400D03*
X027641Y010150D03*
X026141Y009650D03*
X024641Y010150D03*
X023766Y011400D03*
X023891Y013150D03*
X024891Y014275D03*
X027391Y014275D03*
X028391Y013150D03*
X030190Y013150D03*
X031190Y014275D03*
X033690Y014275D03*
X034690Y013150D03*
X034815Y011400D03*
X033940Y010150D03*
X020642Y011400D03*
X019767Y010150D03*
X018267Y009650D03*
X016767Y010150D03*
X015892Y011400D03*
X014342Y011400D03*
X013467Y010150D03*
X011967Y009650D03*
X010467Y010150D03*
X009592Y011400D03*
X009717Y013150D03*
X010717Y014275D03*
X013217Y014275D03*
X014217Y013150D03*
X016017Y013150D03*
X017017Y014275D03*
X019517Y014275D03*
X020517Y013150D03*
D12*
X020047Y015650D02*
X019487Y015650D01*
X019487Y016650D02*
X020047Y016650D01*
X020047Y017650D02*
X019487Y017650D01*
X019487Y018650D02*
X020047Y018650D01*
X020047Y019650D02*
X019487Y019650D01*
X019487Y020650D02*
X020047Y020650D01*
X020047Y021650D02*
X019487Y021650D01*
X019487Y022650D02*
X020047Y022650D01*
X017047Y022650D02*
X016487Y022650D01*
X016487Y021650D02*
X017047Y021650D01*
X017047Y020650D02*
X016487Y020650D01*
X016487Y019650D02*
X017047Y019650D01*
X017047Y018650D02*
X016487Y018650D01*
X016487Y017650D02*
X017047Y017650D01*
X017047Y016650D02*
X016487Y016650D01*
X016487Y015650D02*
X017047Y015650D01*
X013747Y015650D02*
X013187Y015650D01*
X013187Y016650D02*
X013747Y016650D01*
X013747Y017650D02*
X013187Y017650D01*
X013187Y018650D02*
X013747Y018650D01*
X013747Y019650D02*
X013187Y019650D01*
X013187Y020650D02*
X013747Y020650D01*
X013747Y021650D02*
X013187Y021650D01*
X013187Y022650D02*
X013747Y022650D01*
X010747Y022650D02*
X010187Y022650D01*
X010187Y021650D02*
X010747Y021650D01*
X010747Y020650D02*
X010187Y020650D01*
X010187Y019650D02*
X010747Y019650D01*
X010747Y018650D02*
X010187Y018650D01*
X010187Y017650D02*
X010747Y017650D01*
X010747Y016650D02*
X010187Y016650D01*
X010187Y015650D02*
X010747Y015650D01*
X024361Y015650D02*
X024921Y015650D01*
X024921Y016650D02*
X024361Y016650D01*
X024361Y017650D02*
X024921Y017650D01*
X024921Y018650D02*
X024361Y018650D01*
X024361Y019650D02*
X024921Y019650D01*
X024921Y020650D02*
X024361Y020650D01*
X024361Y021650D02*
X024921Y021650D01*
X024921Y022650D02*
X024361Y022650D01*
X027361Y022650D02*
X027921Y022650D01*
X027921Y021650D02*
X027361Y021650D01*
X027361Y020650D02*
X027921Y020650D01*
X027921Y019650D02*
X027361Y019650D01*
X027361Y018650D02*
X027921Y018650D01*
X027921Y017650D02*
X027361Y017650D01*
X027361Y016650D02*
X027921Y016650D01*
X027921Y015650D02*
X027361Y015650D01*
X030660Y015650D02*
X031220Y015650D01*
X031220Y016650D02*
X030660Y016650D01*
X030660Y017650D02*
X031220Y017650D01*
X031220Y018650D02*
X030660Y018650D01*
X030660Y019650D02*
X031220Y019650D01*
X031220Y020650D02*
X030660Y020650D01*
X030660Y021650D02*
X031220Y021650D01*
X031220Y022650D02*
X030660Y022650D01*
X033660Y022650D02*
X034220Y022650D01*
X034220Y021650D02*
X033660Y021650D01*
X033660Y020650D02*
X034220Y020650D01*
X034220Y019650D02*
X033660Y019650D01*
X033660Y018650D02*
X034220Y018650D01*
X034220Y017650D02*
X033660Y017650D01*
X033660Y016650D02*
X034220Y016650D01*
X034220Y015650D02*
X033660Y015650D01*
X034050Y006430D02*
X034050Y005870D01*
X033050Y005870D02*
X033050Y006430D01*
X032050Y006430D02*
X032050Y005870D01*
X031050Y005870D02*
X031050Y006430D01*
X030050Y006430D02*
X030050Y005870D01*
X029050Y005870D02*
X029050Y006430D01*
X028050Y006430D02*
X028050Y005870D01*
X027050Y005870D02*
X027050Y006430D01*
X026050Y006430D02*
X026050Y005870D01*
X025050Y005870D02*
X025050Y006430D01*
X024050Y006430D02*
X024050Y005870D01*
X023050Y005870D02*
X023050Y006430D01*
X022050Y006430D02*
X022050Y005870D01*
X021050Y005870D02*
X021050Y006430D01*
X019360Y006150D02*
X018800Y006150D01*
X018800Y005150D02*
X019360Y005150D01*
X019360Y004150D02*
X018800Y004150D01*
X018800Y003150D02*
X019360Y003150D01*
X021050Y003430D02*
X021050Y002870D01*
X022050Y002870D02*
X022050Y003430D01*
X023050Y003430D02*
X023050Y002870D01*
X024050Y002870D02*
X024050Y003430D01*
X025050Y003430D02*
X025050Y002870D01*
X026050Y002870D02*
X026050Y003430D01*
X027050Y003430D02*
X027050Y002870D01*
X028050Y002870D02*
X028050Y003430D01*
X029050Y003430D02*
X029050Y002870D01*
X030050Y002870D02*
X030050Y003430D01*
X031050Y003430D02*
X031050Y002870D01*
X032050Y002870D02*
X032050Y003430D01*
X033050Y003430D02*
X033050Y002870D01*
X034050Y002870D02*
X034050Y003430D01*
X015800Y003150D02*
X015240Y003150D01*
X015240Y004150D02*
X015800Y004150D01*
X015800Y005150D02*
X015240Y005150D01*
X015240Y006150D02*
X015800Y006150D01*
D13*
X003050Y010650D03*
X003050Y014650D03*
X040300Y014650D03*
X040300Y018650D03*
D14*
X026550Y008140D02*
X026550Y007660D01*
X024550Y007660D02*
X024550Y008140D01*
D15*
X022550Y007900D03*
X021550Y007900D03*
X028550Y007900D03*
X029550Y007900D03*
X035550Y003150D03*
X036550Y003150D03*
X037550Y003150D03*
X038550Y003150D03*
X028050Y001900D03*
X027050Y001900D03*
X002454Y018400D03*
D16*
X035770Y008790D03*
X038330Y008790D03*
X039550Y009150D03*
X039450Y008150D03*
X039550Y007150D03*
X038330Y007010D03*
X039450Y006150D03*
X039550Y005150D03*
X039450Y004150D03*
X035770Y007010D03*
D17*
X035550Y006150D03*
X038550Y006150D03*
X039633Y010693D03*
X039633Y013693D03*
X038800Y014650D03*
X035550Y014650D03*
X035550Y017650D03*
X035550Y018650D03*
X038800Y017650D03*
X039830Y021150D03*
X037270Y021150D03*
X035550Y021650D03*
X029300Y021650D03*
X029300Y018650D03*
X029300Y017650D03*
X029300Y014650D03*
X021300Y014650D03*
X021300Y017650D03*
X021300Y018650D03*
X021300Y021650D03*
X015175Y021650D03*
X015175Y018650D03*
X015175Y017650D03*
X015175Y014650D03*
X004881Y013650D03*
X004881Y010650D03*
D18*
X007704Y017256D03*
X005853Y018437D03*
X007704Y019619D03*
D19*
X003454Y018400D03*
D20*
X011467Y012150D03*
X012467Y012150D03*
X017767Y012150D03*
X018767Y012150D03*
X025641Y012150D03*
X026641Y012150D03*
X031940Y012150D03*
X032940Y012150D03*
X037050Y015650D03*
X037800Y016150D03*
X037050Y016650D03*
D21*
X010924Y005794D03*
X003050Y005794D03*
D22*
X015800Y007150D03*
X015800Y008150D03*
D23*
X007933Y012150D03*
X007243Y011440D03*
X006553Y012150D03*
X007243Y012860D03*
X036474Y012150D03*
X037164Y011440D03*
X037854Y012150D03*
X037164Y012860D03*
D24*
X034690Y013150D02*
X034690Y015900D01*
X033940Y016650D01*
X032800Y017510D02*
X033940Y018650D01*
X033440Y019150D02*
X033940Y019650D01*
X033440Y019150D02*
X028050Y019150D01*
X027641Y019559D01*
X027641Y019650D01*
X027641Y018650D02*
X026550Y017559D01*
X026550Y013400D01*
X027641Y012309D01*
X027641Y010150D01*
X024641Y010150D02*
X024641Y012241D01*
X025800Y013400D01*
X025800Y017491D01*
X024641Y018650D01*
X025050Y020150D02*
X030440Y020150D01*
X030940Y020650D01*
X029300Y021650D02*
X027641Y021650D01*
X027141Y021150D02*
X027641Y020650D01*
X027141Y021150D02*
X023550Y021150D01*
X022550Y022150D01*
X017550Y022150D01*
X017050Y021650D01*
X016767Y021650D01*
X016767Y020650D02*
X014550Y020650D01*
X014050Y021150D01*
X010967Y021150D01*
X010467Y020650D01*
X011050Y020150D02*
X016267Y020150D01*
X016767Y019650D01*
X017550Y020150D02*
X024141Y020150D01*
X024345Y020355D01*
X024641Y020650D01*
X024641Y020559D01*
X025050Y020150D01*
X024800Y021650D02*
X024641Y021650D01*
X024800Y021650D02*
X025300Y022150D01*
X032440Y022150D01*
X033940Y020650D01*
X033940Y021650D02*
X035550Y021650D01*
X037270Y021150D02*
X037270Y016870D01*
X037050Y016650D01*
X039550Y016650D01*
X040300Y015900D01*
X040300Y014650D01*
X033940Y015650D02*
X033690Y015400D01*
X033690Y014275D01*
X032800Y013400D02*
X032800Y017510D01*
X032050Y017540D02*
X030940Y018650D01*
X032050Y017540D02*
X032050Y013400D01*
X030940Y012290D01*
X030940Y010150D01*
X033940Y010150D02*
X033940Y012260D01*
X032800Y013400D01*
X031190Y014275D02*
X031190Y015400D01*
X030940Y015650D01*
X030190Y015900D02*
X030940Y016650D01*
X030190Y015900D02*
X030190Y013150D01*
X028391Y013150D02*
X028391Y015900D01*
X027641Y016650D01*
X027641Y015650D02*
X027391Y015400D01*
X027391Y014275D01*
X024891Y014275D02*
X024891Y015400D01*
X024641Y015650D01*
X023891Y015900D02*
X024641Y016650D01*
X023891Y015900D02*
X023891Y013150D01*
X020517Y013150D02*
X020517Y015900D01*
X019767Y016650D01*
X018800Y017683D02*
X019767Y018650D01*
X019267Y019150D02*
X019767Y019650D01*
X019267Y019150D02*
X013800Y019150D01*
X013467Y019483D01*
X013467Y019650D01*
X013467Y018650D02*
X012550Y017733D01*
X012550Y013150D01*
X013467Y012233D01*
X013467Y010150D01*
X012050Y008650D02*
X016800Y008650D01*
X016800Y002650D01*
X014550Y002650D01*
X014550Y003650D01*
X016300Y003650D01*
X016300Y004650D01*
X012050Y004650D01*
X012050Y008650D01*
X012050Y008564D02*
X015596Y008564D01*
X015539Y008540D02*
X015410Y008411D01*
X015340Y008241D01*
X015340Y008058D01*
X015410Y007889D01*
X015539Y007760D01*
X015708Y007690D01*
X015891Y007690D01*
X016061Y007760D01*
X016190Y007889D01*
X016260Y008058D01*
X016260Y008241D01*
X016190Y008411D01*
X016061Y008540D01*
X015891Y008610D01*
X015708Y008610D01*
X015539Y008540D01*
X015444Y008445D02*
X012050Y008445D01*
X012050Y008327D02*
X015375Y008327D01*
X015340Y008208D02*
X012050Y008208D01*
X012050Y008090D02*
X015340Y008090D01*
X015376Y007971D02*
X012050Y007971D01*
X012050Y007853D02*
X015447Y007853D01*
X015602Y007734D02*
X012050Y007734D01*
X012050Y007616D02*
X016800Y007616D01*
X016800Y007734D02*
X015998Y007734D01*
X015891Y007610D02*
X015708Y007610D01*
X015539Y007540D01*
X015410Y007411D01*
X015340Y007241D01*
X015340Y007058D01*
X015410Y006889D01*
X015539Y006760D01*
X015708Y006690D01*
X015891Y006690D01*
X016061Y006760D01*
X016190Y006889D01*
X016260Y007058D01*
X016260Y007241D01*
X016190Y007411D01*
X016061Y007540D01*
X015891Y007610D01*
X016104Y007497D02*
X016800Y007497D01*
X016800Y007379D02*
X016203Y007379D01*
X016252Y007260D02*
X016800Y007260D01*
X016800Y007142D02*
X016260Y007142D01*
X016245Y007023D02*
X016800Y007023D01*
X016800Y006905D02*
X016196Y006905D01*
X016087Y006786D02*
X016800Y006786D01*
X016800Y006668D02*
X012050Y006668D01*
X012050Y006786D02*
X015513Y006786D01*
X015404Y006905D02*
X012050Y006905D01*
X012050Y007023D02*
X015355Y007023D01*
X015340Y007142D02*
X012050Y007142D01*
X012050Y007260D02*
X015348Y007260D01*
X015397Y007379D02*
X012050Y007379D01*
X012050Y007497D02*
X015496Y007497D01*
X016153Y007853D02*
X016800Y007853D01*
X016800Y007971D02*
X016224Y007971D01*
X016260Y008090D02*
X016800Y008090D01*
X016800Y008208D02*
X016260Y008208D01*
X016225Y008327D02*
X016800Y008327D01*
X016800Y008445D02*
X016156Y008445D01*
X016004Y008564D02*
X016800Y008564D01*
X016767Y010150D02*
X016800Y010183D01*
X016800Y012150D01*
X017800Y013150D01*
X017800Y017650D01*
X016800Y018650D01*
X016767Y018650D01*
X018800Y017683D02*
X018800Y013150D01*
X019767Y012183D01*
X019767Y010150D01*
X016017Y013150D02*
X016017Y015900D01*
X016767Y016650D01*
X016767Y015650D02*
X017017Y015400D01*
X017017Y014275D01*
X019517Y014275D02*
X019517Y015400D01*
X019767Y015650D01*
X014217Y015900D02*
X014217Y013150D01*
X013217Y014275D02*
X013217Y015400D01*
X013467Y015650D01*
X014217Y015900D02*
X013467Y016650D01*
X011550Y017567D02*
X010467Y018650D01*
X010467Y019650D02*
X010550Y019650D01*
X011050Y020150D01*
X010550Y021650D02*
X011050Y022150D01*
X014300Y022150D01*
X014550Y021900D01*
X014550Y021400D01*
X014800Y021150D01*
X019267Y021150D01*
X019767Y020650D01*
X019767Y021650D02*
X021300Y021650D01*
X020050Y022650D02*
X019767Y022650D01*
X019300Y023150D01*
X014050Y023150D01*
X013467Y022650D01*
X013050Y023150D01*
X006050Y023150D01*
X003454Y020554D01*
X003454Y018400D01*
X009717Y015900D02*
X010467Y016650D01*
X011550Y017567D02*
X011550Y013400D01*
X010467Y012317D01*
X010467Y010150D01*
X007243Y012860D02*
X007243Y012957D01*
X006550Y013650D01*
X004881Y013650D01*
X009717Y013150D02*
X009717Y015900D01*
X010467Y015650D02*
X010717Y015400D01*
X010717Y014275D01*
X017050Y020650D02*
X017550Y020150D01*
X017050Y020650D02*
X016767Y020650D01*
X020050Y022650D02*
X020550Y023150D01*
X027050Y023150D01*
X027641Y022650D01*
X028050Y023150D01*
X033425Y023150D01*
X033940Y022650D01*
X038330Y022650D01*
X039830Y021150D01*
X040300Y020680D01*
X040300Y018650D01*
X038550Y006150D02*
X038550Y003150D01*
X016800Y003113D02*
X016240Y003113D01*
X016240Y003115D02*
X016240Y003130D01*
X015820Y003130D01*
X015820Y003170D01*
X015780Y003170D01*
X015780Y003590D01*
X015205Y003590D01*
X015137Y003579D01*
X015071Y003558D01*
X015009Y003526D01*
X014953Y003486D01*
X014904Y003437D01*
X014864Y003381D01*
X014832Y003319D01*
X014811Y003253D01*
X014800Y003185D01*
X014800Y003170D01*
X015780Y003170D01*
X015780Y003130D01*
X015820Y003130D01*
X015820Y002710D01*
X015835Y002710D01*
X015903Y002721D01*
X015969Y002742D01*
X016031Y002774D01*
X016087Y002814D01*
X016136Y002863D01*
X016176Y002919D01*
X016208Y002981D01*
X016229Y003047D01*
X016240Y003115D01*
X016240Y003170D02*
X015820Y003170D01*
X015820Y003590D01*
X015835Y003590D01*
X015903Y003579D01*
X015969Y003558D01*
X016031Y003526D01*
X016087Y003486D01*
X016136Y003437D01*
X016176Y003381D01*
X016208Y003319D01*
X016229Y003253D01*
X016240Y003185D01*
X016240Y003170D01*
X016233Y003231D02*
X016800Y003231D01*
X016800Y003350D02*
X016192Y003350D01*
X016104Y003468D02*
X016800Y003468D01*
X016800Y003587D02*
X015857Y003587D01*
X015820Y003587D02*
X015780Y003587D01*
X015780Y003468D02*
X015820Y003468D01*
X015820Y003350D02*
X015780Y003350D01*
X015780Y003231D02*
X015820Y003231D01*
X015780Y003130D02*
X014800Y003130D01*
X014800Y003115D01*
X014811Y003047D01*
X014832Y002981D01*
X014864Y002919D01*
X014904Y002863D01*
X014953Y002814D01*
X015009Y002774D01*
X015071Y002742D01*
X015137Y002721D01*
X015205Y002710D01*
X015780Y002710D01*
X015780Y003130D01*
X015780Y003113D02*
X015820Y003113D01*
X015820Y002994D02*
X015780Y002994D01*
X015780Y002876D02*
X015820Y002876D01*
X015820Y002757D02*
X015780Y002757D01*
X015998Y002757D02*
X016800Y002757D01*
X016800Y002876D02*
X016144Y002876D01*
X016212Y002994D02*
X016800Y002994D01*
X016800Y003705D02*
X016300Y003705D01*
X016300Y003824D02*
X016800Y003824D01*
X016800Y003942D02*
X016300Y003942D01*
X016300Y004061D02*
X016800Y004061D01*
X016800Y004179D02*
X016300Y004179D01*
X016300Y004298D02*
X016800Y004298D01*
X016800Y004416D02*
X016300Y004416D01*
X016300Y004535D02*
X016800Y004535D01*
X016800Y004653D02*
X012050Y004653D01*
X012050Y004772D02*
X014968Y004772D01*
X014979Y004760D02*
X015148Y004690D01*
X015891Y004690D01*
X016061Y004760D01*
X016190Y004889D01*
X016260Y005058D01*
X016260Y005241D01*
X016190Y005411D01*
X016061Y005540D01*
X015891Y005610D01*
X015148Y005610D01*
X014979Y005540D01*
X014850Y005411D01*
X014780Y005241D01*
X014780Y005058D01*
X014850Y004889D01*
X014979Y004760D01*
X014850Y004890D02*
X012050Y004890D01*
X012050Y005009D02*
X014801Y005009D01*
X014780Y005127D02*
X012050Y005127D01*
X012050Y005246D02*
X014782Y005246D01*
X014831Y005364D02*
X012050Y005364D01*
X012050Y005483D02*
X014922Y005483D01*
X015127Y005601D02*
X012050Y005601D01*
X012050Y005720D02*
X015077Y005720D01*
X015148Y005690D02*
X014979Y005760D01*
X014850Y005889D01*
X014780Y006058D01*
X014780Y006241D01*
X014850Y006411D01*
X014979Y006540D01*
X015148Y006610D01*
X015891Y006610D01*
X016061Y006540D01*
X016190Y006411D01*
X016260Y006241D01*
X016260Y006058D01*
X016190Y005889D01*
X016061Y005760D01*
X015891Y005690D01*
X015148Y005690D01*
X014901Y005838D02*
X012050Y005838D01*
X012050Y005957D02*
X014822Y005957D01*
X014780Y006075D02*
X012050Y006075D01*
X012050Y006194D02*
X014780Y006194D01*
X014809Y006312D02*
X012050Y006312D01*
X012050Y006431D02*
X014870Y006431D01*
X015001Y006549D02*
X012050Y006549D01*
X015913Y005601D02*
X016800Y005601D01*
X016800Y005483D02*
X016118Y005483D01*
X016209Y005364D02*
X016800Y005364D01*
X016800Y005246D02*
X016258Y005246D01*
X016260Y005127D02*
X016800Y005127D01*
X016800Y005009D02*
X016239Y005009D01*
X016190Y004890D02*
X016800Y004890D01*
X016800Y004772D02*
X016072Y004772D01*
X015963Y005720D02*
X016800Y005720D01*
X016800Y005838D02*
X016139Y005838D01*
X016218Y005957D02*
X016800Y005957D01*
X016800Y006075D02*
X016260Y006075D01*
X016260Y006194D02*
X016800Y006194D01*
X016800Y006312D02*
X016231Y006312D01*
X016170Y006431D02*
X016800Y006431D01*
X016800Y006549D02*
X016039Y006549D01*
X015183Y003587D02*
X014550Y003587D01*
X014550Y003468D02*
X014936Y003468D01*
X014848Y003350D02*
X014550Y003350D01*
X014550Y003231D02*
X014807Y003231D01*
X014800Y003113D02*
X014550Y003113D01*
X014550Y002994D02*
X014828Y002994D01*
X014896Y002876D02*
X014550Y002876D01*
X014550Y002757D02*
X015042Y002757D01*
X010550Y021650D02*
X010467Y021650D01*
D25*
X019767Y019650D02*
X020267Y019150D01*
X021550Y019150D01*
X022050Y018650D01*
X022050Y006150D01*
X023050Y006150D02*
X023050Y006900D01*
X023300Y007150D01*
X023300Y009900D01*
X023550Y010150D01*
X021300Y010900D02*
X020550Y010150D01*
X021300Y010900D02*
X021300Y014650D01*
X015175Y014650D02*
X015175Y010775D01*
X014550Y010150D01*
X020050Y005650D02*
X020550Y006150D01*
X021050Y006150D01*
X020050Y005650D02*
X020050Y001650D01*
X020550Y001150D01*
X039300Y001150D01*
X040550Y002400D01*
X040550Y011650D01*
X038800Y013400D01*
X038800Y014650D01*
X038050Y013650D02*
X036800Y013650D01*
X036300Y014150D01*
X036300Y019400D01*
X035550Y020150D01*
X032440Y020150D01*
X030940Y021650D01*
X026175Y018116D02*
X024641Y019650D01*
X024345Y020355D02*
X023050Y019059D01*
X023050Y007400D01*
X022925Y007275D01*
X022550Y006900D01*
X022550Y004650D01*
X023050Y004150D01*
X023050Y003150D01*
X022050Y003150D02*
X022050Y004150D01*
X021550Y004650D01*
X021050Y004650D01*
X018800Y004150D02*
X018300Y003650D01*
X018300Y001400D01*
X019050Y000650D01*
X034050Y000650D01*
X036550Y002025D02*
X036550Y003150D01*
X036175Y003775D02*
X036175Y005900D01*
X035925Y006150D01*
X035550Y006150D01*
X034050Y006150D01*
X033050Y006150D02*
X033050Y006900D01*
X035550Y009400D01*
X038050Y009400D01*
X038550Y009900D01*
X038550Y012650D01*
X038340Y012860D01*
X037164Y012860D01*
X036474Y012150D02*
X036474Y010699D01*
X035300Y009525D01*
X034425Y009525D01*
X031050Y006150D01*
X032050Y006150D02*
X032050Y005650D01*
X030550Y004150D01*
X028050Y006150D02*
X028050Y006400D01*
X028800Y007150D01*
X031050Y007150D01*
X032050Y008150D01*
X030550Y008150D02*
X030550Y007900D01*
X030050Y007400D01*
X027300Y007400D01*
X026550Y006650D01*
X026550Y005650D01*
X026300Y005400D01*
X024800Y005400D01*
X024050Y006150D01*
X025050Y006150D02*
X025050Y007400D01*
X024550Y007900D01*
X023550Y008025D02*
X026175Y010650D01*
X026175Y018116D01*
X029300Y014650D02*
X029300Y010900D01*
X028550Y010150D01*
X026550Y007900D02*
X026050Y007400D01*
X026050Y006150D01*
X025050Y004650D02*
X024550Y004150D01*
X024550Y002400D01*
X025050Y002150D02*
X025800Y001400D01*
X039050Y001400D01*
X040300Y002650D01*
X040300Y011400D01*
X038050Y013650D01*
X035550Y014650D02*
X035550Y010650D01*
X035050Y010150D01*
X035770Y008790D02*
X035910Y008790D01*
X036550Y008150D01*
X036550Y006775D01*
X035925Y006150D01*
X039450Y004150D02*
X039450Y002175D01*
X038925Y001650D01*
X036925Y001650D01*
X036550Y002025D01*
X035550Y003150D02*
X036175Y003775D01*
X027050Y003150D02*
X027050Y001900D01*
X025050Y002150D02*
X025050Y003150D01*
X024050Y003150D02*
X024050Y004650D01*
X023550Y005150D01*
X023550Y008025D01*
D26*
X023550Y010150D03*
X020550Y010150D03*
X014550Y010150D03*
X021050Y004650D03*
X025050Y004650D03*
X024550Y002400D03*
X030550Y004150D03*
X034050Y000650D03*
X032050Y008150D03*
X030550Y008150D03*
X028550Y010150D03*
X035050Y010150D03*
X017800Y001150D03*
D27*
X007550Y001150D01*
X005550Y003150D01*
X005550Y006650D01*
X001550Y010650D01*
X001550Y013150D01*
X003050Y014650D01*
X003050Y017996D01*
X003454Y018400D01*
X005097Y014650D02*
X007704Y017256D01*
X007656Y017256D01*
X005097Y014650D02*
X003050Y014650D01*
X003050Y010650D02*
X004550Y009150D01*
X011550Y009150D01*
X011967Y009567D01*
X011967Y009650D01*
X012050Y009650D01*
X012550Y009150D01*
X017767Y009150D01*
X018267Y009650D01*
X018550Y006150D02*
X017800Y005400D01*
X017800Y001150D01*
X015800Y004150D02*
X011550Y004150D01*
X010924Y004776D01*
X010924Y005794D01*
X018550Y006150D02*
X018800Y006150D01*
X026050Y004150D02*
X026050Y003150D01*
X026050Y004150D02*
X028050Y006150D01*
X026550Y009150D02*
X031940Y009150D01*
X032440Y009650D01*
X026550Y009150D02*
X026141Y009559D01*
X026141Y009650D01*
M02*
