%
M48
M72
T01C0.0200
T02C0.0240
T03C0.0276
T04C0.0315
T05C0.0320
T06C0.0354
T07C0.0400
T08C0.0472
T09C0.0512
T10C0.0591
T11C0.1180
T12C0.1300
%
T01
X17800Y1150
X21050Y4650
X25050Y4650
X24550Y2400
X30550Y4150
X34050Y650
X32050Y8150
X30550Y8150
X28550Y10150
X23550Y10150
X20550Y10150
X14550Y10150
X35050Y10150
T02
X26550Y7900
X24550Y7900
T03
X22550Y7900
X21550Y7900
X28550Y7900
X29550Y7900
X35550Y3150
X36550Y3150
X37550Y3150
X38550Y3150
X28050Y1900
X27050Y1900
X3454Y18400
X2454Y18400
T04
X10717Y14275
X9717Y13150
X9592Y11400
X10467Y10150
X11967Y9650
X13467Y10150
X14342Y11400
X15892Y11400
X16767Y10150
X18267Y9650
X19767Y10150
X20642Y11400
X20517Y13150
X19517Y14275
X17017Y14275
X16017Y13150
X14217Y13150
X13217Y14275
X23891Y13150
X24891Y14275
X27391Y14275
X28391Y13150
X30190Y13150
X31190Y14275
X33690Y14275
X34690Y13150
X34815Y11400
X33940Y10150
X32440Y9650
X30940Y10150
X30065Y11400
X28516Y11400
X27641Y10150
X26141Y9650
X24641Y10150
X23766Y11400
T05
X25641Y12150
X26641Y12150
X31940Y12150
X32940Y12150
X33940Y15650
X33940Y16650
X33940Y17650
X33940Y18650
X33940Y19650
X33940Y20650
X33940Y21650
X33940Y22650
X30940Y22650
X30940Y21650
X30940Y20650
X30940Y19650
X30940Y18650
X30940Y17650
X30940Y16650
X30940Y15650
X27641Y15650
X27641Y16650
X27641Y17650
X27641Y18650
X27641Y19650
X27641Y20650
X27641Y21650
X27641Y22650
X24641Y22650
X24641Y21650
X24641Y20650
X24641Y19650
X24641Y18650
X24641Y17650
X24641Y16650
X24641Y15650
X19767Y15650
X19767Y16650
X19767Y17650
X19767Y18650
X19767Y19650
X19767Y20650
X19767Y21650
X19767Y22650
X16767Y22650
X16767Y21650
X16767Y20650
X16767Y19650
X16767Y18650
X16767Y17650
X16767Y16650
X16767Y15650
X13467Y15650
X13467Y16650
X13467Y17650
X13467Y18650
X13467Y19650
X13467Y20650
X13467Y21650
X13467Y22650
X10467Y22650
X10467Y21650
X10467Y20650
X10467Y19650
X10467Y18650
X10467Y17650
X10467Y16650
X10467Y15650
X11467Y12150
X12467Y12150
X17767Y12150
X18767Y12150
X15800Y8150
X15800Y7150
X15800Y6150
X15800Y5150
X15800Y4150
X15800Y3150
X18800Y3150
X18800Y4150
X18800Y5150
X18800Y6150
X21050Y6150
X22050Y6150
X23050Y6150
X24050Y6150
X25050Y6150
X26050Y6150
X27050Y6150
X28050Y6150
X29050Y6150
X30050Y6150
X31050Y6150
X32050Y6150
X33050Y6150
X34050Y6150
X34050Y3150
X33050Y3150
X32050Y3150
X31050Y3150
X30050Y3150
X29050Y3150
X28050Y3150
X27050Y3150
X26050Y3150
X25050Y3150
X24050Y3150
X23050Y3150
X22050Y3150
X21050Y3150
X37050Y15650
X37800Y16150
X37050Y16650
T06
X35550Y17650
X35550Y18650
X38800Y17650
X38800Y14650
X39633Y13693
X35550Y14650
X29300Y14650
X29300Y17650
X29300Y18650
X29300Y21650
X35550Y21650
X37270Y21150
X39830Y21150
X21300Y21650
X21300Y18650
X21300Y17650
X21300Y14650
X15175Y14650
X15175Y17650
X15175Y18650
X15175Y21650
X4881Y13650
X4881Y10650
X35550Y6150
X38550Y6150
X39633Y10693
T07
X39550Y9150
X38330Y8790
X39450Y8150
X39550Y7150
X38330Y7010
X39450Y6150
X39550Y5150
X39450Y4150
X35770Y7010
X35770Y8790
T08
X40300Y14650
X40300Y18650
X3050Y14650
X3050Y10650
T09
X3050Y5794
X10924Y5794
T10
X7243Y11440
X7933Y12150
X7243Y12860
X6553Y12150
X36474Y12150
X37164Y11440
X37854Y12150
X37164Y12860
T11
X7704Y17256
X5853Y18437
X7704Y19619
T12
X2125Y1725
X2125Y22394
X42282Y22394
X42282Y1725
M30
